<?xml version="1.0" encoding="UTF-8" standalone="no"?>
<!DOCTYPE svg  PUBLIC '-//W3C//DTD SVG 1.1//EN'  'http://www.w3.org/Graphics/SVG/1.1/DTD/svg11.dtd'>
<svg xmlns="http://www.w3.org/2000/svg" version="1.1">
<defs>
<font id="FredokaOne-Regular" horiz-adv-x="775">
<font-face unicode-range="U+0020-FB03" units-per-em="1000" underline-thickness="50" font-family="FredokaOne" panose-1="2 0 0 0 0 0 0 0 0 0" font-weight="400" bbox="-132 -236 1183.02 974" cap-height="733" descent="-200" ascent="800" x-height="527" underline-position="-150"/>
<missing-glyph horiz-adv-x="500"/>
<glyph d="M701 527q69 0 81 -38q6 -19 6 -50t-6 -49t-21 -27q-21 -12 -61 -12l-64 4v-268q0 -39 -10 -57t-28 -24q-20 -6 -51 -6t-49 6t-27 22q-7 14 -9 26t-2 35v265q-48 -3 -79 -3l-98 4v-268q1 -39 -9 -57t-30 -24t-50 -6q-32 0 -50 6t-26 22q-8 14 -10 26t-1 35v265 q-19 -3 -41 -3t-36 17t-15 58q0 42 5 60t14 26q16 13 40 13l33 -4v53q0 78 55 140t159 62q23 0 35 -2t26 -8q27 -14 27 -78q0 -48 -17 -68q-14 -17 -44 -18q-9 -1 -28 -1q-37 0 -37 -25v-55q54 4 93 4l84 -4v53q0 78 55 140t159 62q24 0 35 -2t26 -8q27 -14 27 -78 q0 -48 -17 -68q-14 -17 -43 -18q-10 -1 -29 -1q-37 0 -37 -25v-55z" unicode="ff" horiz-adv-x="803" glyph-name="f_f"/>
<glyph d="M632 604q-18 -6 -50 -6t-51 6t-27 21t-8 27q-2 12 -2 34t2 34t8 26q14 27 78 27q63 0 76 -27q8 -14 10 -26t1 -35q1 -23 -1 -35t-10 -26t-26 -20zM494 439q0 23 2 35t8 26q14 26 78 26q48 0 68 -17q17 -14 18 -43q1 -10 1 -29v-350q1 -23 -1 -35t-10 -26q-13 -26 -77 -26 q-63 0 -77 27q-6 15 -8 26t-2 35v351zM348 526q69 0 81 -38q6 -19 6 -50q-1 -32 -7 -50t-20 -26q-21 -12 -61 -12l-64 4v-268q1 -38 -9 -56t-30 -25q-20 -6 -50 -6q-32 1 -50 7t-26 20t-10 27q-2 12 -1 35v265h-36q-26 2 -37 12q-19 19 -19 73q0 82 59 82h33v53q0 77 55 139 t159 63q23 1 35 -1t26 -10q27 -13 27 -77q0 -48 -17 -69q-14 -16 -44 -18h-28q-37 0 -37 -25v-55z" unicode="fi" horiz-adv-x="709" glyph-name="fi"/>
<glyph d="M487 687q-1 23 1 35t10 26q13 27 77 27q61 0 76 -27q7 -15 9 -27t2 -35v-463q0 -35 6 -45t26 -10t28 -2q7 -2 18 -8q19 -13 19 -71q0 -63 -19 -77q-16 -11 -58 -11q-28 0 -67 5q-77 10 -101 51q-27 49 -27 156v476zM348 526q69 0 81 -38q6 -19 6 -50q-1 -32 -7 -50 t-20 -26q-21 -12 -61 -12l-64 4v-268q1 -38 -9 -56t-30 -25q-20 -6 -50 -6q-32 1 -50 7t-26 20t-10 27q-2 12 -1 35v265h-36q-26 2 -37 12q-19 19 -19 73q0 82 59 82h33v53q0 77 55 139t159 63q23 1 35 -1t26 -10q27 -13 27 -77q0 -48 -17 -69q-14 -16 -44 -18h-28 q-37 0 -37 -25v-55z" unicode="fl" horiz-adv-x="774" glyph-name="fl"/>
<glyph d="M882 517q18 6 50 6t50 -6t26 -21q8 -14 10 -26t1 -36v-348q1 -23 -1 -34q-2 -12 -10 -26t-26 -20q-19 -6 -50 -6t-50 6q-18 6 -26 20t-10 26t-1 35v349q-1 22 1 34t10 26t26 21zM932 594q-31 0 -50 6q-18 6 -26 21t-10 27t-1 34q-1 22 1 34t10 26q13 26 77 26 q62 0 75 -26q8 -14 10 -26t1 -35q1 -23 -1 -35t-10 -26t-26 -20q-19 -6 -50 -6zM701 527q69 0 81 -38q6 -19 6 -50t-6 -49t-21 -27q-21 -12 -61 -12l-64 4v-268q0 -39 -10 -57t-28 -24q-20 -6 -51 -6t-49 6t-27 22q-7 14 -9 26t-2 35v265q-49 -3 -80 -3l-97 4v-268 q1 -39 -9 -57t-30 -24t-50 -6q-32 0 -50 6t-26 22q-8 14 -10 26t-1 35v265q-19 -3 -41 -3t-36 17t-15 58q0 42 5 60t14 26q16 13 40 13l33 -4v53q0 78 55 140t159 62q23 0 35 -2t26 -8q27 -14 27 -78q0 -48 -17 -68q-14 -17 -44 -18q-9 -1 -28 -1q-37 0 -37 -25v-55 q53 4 92 4l85 -4v53q0 78 55 140t159 62q24 0 35 -2t26 -8q27 -14 27 -78q0 -48 -17 -68q-14 -17 -43 -18q-10 -1 -29 -1q-37 0 -37 -25v-55z" unicode="ffi" horiz-adv-x="1059" glyph-name="f_f_i"/>
<glyph d="M711 350l-65 4v-138q0 -27 8 -39t32 -12q24 1 36 -1t26 -10q24 -13 24 -67q0 -63 -28 -77q-14 -6 -26 -8t-34 -2q-98 0 -155 55t-57 151v148q-54 -3 -92 -3l-97 4v-268q1 -39 -9 -57t-30 -24t-50 -6q-32 0 -50 6t-26 22q-8 14 -10 26t-1 35v265q-19 -3 -41 -3t-36 17 t-15 58q0 42 5 60t14 26q16 13 40 13l33 -4v53q0 78 55 140t159 62q23 0 35 -2t26 -8q27 -14 27 -78q0 -48 -17 -68q-14 -17 -44 -18q-9 -1 -28 -1q-37 0 -37 -25v-55q55 4 96 4l93 -4v103q0 23 2 34t8 24q14 25 78 25q68 0 80 -37q6 -16 6 -51v-98q44 4 66 4q22 1 34 -1 t26 -10q27 -13 27 -77q0 -63 -27 -77q-14 -6 -26 -8t-35 -2z" unicode="ft" horiz-adv-x="814" glyph-name="f_t"/>
<glyph d="M691 350l-65 4v-138q0 -27 8 -39t32 -12q24 1 36 -1t26 -10q24 -13 24 -67q0 -63 -28 -77q-14 -6 -26 -8t-34 -2q-100 0 -156 52t-56 154v148q-48 -4 -80 -4l-91 4v-138q1 -27 9 -39t32 -12q24 1 36 -1t26 -10q23 -13 23 -67q0 -63 -28 -77q-15 -6 -27 -8t-33 -2 q-100 0 -156 52t-56 154v148q-19 -3 -41 -3t-36 17t-15 58q0 42 5 60t14 26q16 13 40 13l33 -4v103q-1 23 1 34t10 24q13 25 77 25q68 0 81 -37q5 -16 5 -51v-95q47 1 89 1l82 -1v100q0 23 2 34t8 24q14 25 78 25q68 0 80 -37q6 -16 6 -51v-98q44 4 66 4q22 1 34 -1t26 -10 q27 -13 27 -77q0 -63 -27 -77q-14 -6 -26 -8t-35 -2z" unicode="tt" horiz-adv-x="794" glyph-name="t_t"/>
<glyph d="M493 183q8 -6 41 -6t55 -17t22 -70q1 -52 -23 -70t-66 -18q-212 0 -212 210l-1 477q-1 23 1 35t10 26q15 26 78 26q61 0 76 -28q11 -22 11 -60v-480q0 -19 8 -25zM224 177q33 0 49 -17t16 -70q0 -52 -17 -70t-49 -18q-101 0 -142 48t-41 162v477q0 23 2 35t8 26 q14 26 78 26q61 0 76 -28q8 -14 10 -26t1 -34v-480q0 -31 9 -31z" unicode="ll" horiz-adv-x="626" glyph-name="l_l"/>
<glyph d="M345 518q19 6 51 6t49 -6t25 -20t10 -26q2 -11 1 -34v-413q1 -125 -49 -191t-139 -66q-23 0 -34 2t-25 8q-26 14 -26 77q0 85 65 85q22 0 29 15t7 77v407q-1 24 1 34t9 25q7 14 26 20zM394 595q-26 0 -42 5q-16 6 -25 12t-13 20q-5 16 -5 44q-1 28 1 40q2 11 10 25t26 20 t49 6t49 -6q18 -7 26 -21t10 -25t1 -33q0 -22 -1 -29q-1 -8 -5 -22t-13 -20t-26 -11t-42 -5zM212 439v-413q0 -60 -24 -110t-62 -82q-79 -65 -173 -65q-23 -1 -34 1t-25 10q-26 13 -26 72t21 74t51 15q30 -1 48 5t35 28t17 59v407q0 24 2 34t8 25q12 26 77 26q61 0 75 -27 q6 -14 8 -25t2 -34zM125 596q-31 0 -49 6t-26 20t-8 26q-2 12 -2 35t2 34t8 25q8 14 26 20t50 6t50 -6t26 -20t8 -26q2 -11 2 -34q0 -22 -2 -34t-8 -26q-8 -14 -27 -20t-50 -6z" unicode="jj" horiz-adv-x="521" glyph-name="j_j"/>
<glyph horiz-adv-x="500" glyph-name=".notdef"/>
<glyph horiz-adv-x="0" glyph-name=".null"/>
<glyph horiz-adv-x="333" glyph-name="nonmarkingreturn"/>
<glyph unicode=" " horiz-adv-x="253" glyph-name="space"/>
<glyph d="M133 264q-32 0 -51 5q-18 5 -26 18t-10 23t-1 31v317q-1 22 1 32t10 23t27 19t51 5q32 1 51 -5t27 -20t8 -24q2 -10 2 -31v-317q0 -21 -2 -31q-2 -11 -9 -23q-8 -12 -27 -17t-51 -5zM80 179q20 7 64 7t64 -19t19 -60v-16q1 -23 -1 -35t-10 -28q-16 -29 -76 -29 q-60 -1 -80 19t-20 76q0 38 10 58t30 27z" unicode="!" horiz-adv-x="267" glyph-name="exclam"/>
<glyph d="M382 472q-22 -91 -58 -91t-56 91q-22 91 -22 163q0 77 34 91q18 7 46 7q28 1 45 -7t23 -24q10 -25 10 -82t-22 -148zM161 472q-21 -91 -57 -91t-58 91t-21 163q0 63 17 79q22 19 56 19q34 1 52 -7t24 -24q9 -25 9 -82t-22 -148z" unicode='&quot;' horiz-adv-x="429" glyph-name="quotedbl"/>
<glyph d="M448 300l18 110h-148l-19 -110h149zM631 541h51q20 1 28 -1t16 -11t8 -27t-4 -38t-15 -35q-12 -15 -23 -17t-33 -2h-50l-18 -110h51q20 0 28 -2t16 -10t8 -26t-3 -35t-9 -31t-18 -20q-16 -8 -45 -8h-50q-10 -62 -12 -77l-2 -11q-5 -22 -7 -31t-10 -22q-16 -23 -74 -23 t-58 37q0 1 8 52l12 75h-149q-10 -62 -12 -77l-2 -11q-5 -22 -7 -31t-10 -22q-16 -23 -74 -23t-58 37q0 1 8 52l12 75h-66q-42 0 -50 18q-3 8 -3 24q-1 16 3 36t16 35t24 17q11 2 33 2h65l18 110h-66q-43 0 -50 17q-3 9 -3 24q-1 15 3 35t16 36q12 15 24 17q11 2 33 2h65 l17 103q1 6 3 20t2 18q2 6 5 16t9 14t14 10q14 9 51 9q37 -1 51 -11t15 -31q0 -3 -5 -35l-19 -113h149l17 103q1 6 3 20t2 18q2 6 5 16t9 14t14 10q14 9 51 9q37 -1 51 -11t15 -31q0 -3 -5 -35z" unicode="#" horiz-adv-x="749" glyph-name="numbersign"/>
<glyph d="M450 243q0 -78 -45 -125t-109 -62v-64q0 -35 -6 -49t-20 -19q-12 -5 -33 -5t-33 5t-18 18q-7 17 -7 51v62q-41 9 -74 30t-46 37l-13 17q-21 27 -21 47t34 53q21 19 43 19t62 -40q31 -38 70 -38q74 0 74 61q0 22 -28 34q-28 11 -68 21t-80 26t-68 55t-28 99t38 108t105 62 v56q0 34 6 49q10 24 53 24q26 1 40 -11t16 -25t2 -38v-56q28 -6 51 -17t32 -18l9 -8l4 -3q25 -23 25 -38q1 -15 -23 -50t-52 -35q-18 0 -30 9l-20 15q-7 6 -13 10q-17 11 -43 11q-26 -1 -43 -13t-17 -34t20 -36t51 -18q30 -4 66 -14t66 -25q31 -13 51 -49t20 -89z" unicode="$" horiz-adv-x="475" glyph-name="dollar"/>
<glyph d="M577 761q13 23 25 23t37 -13q24 -13 24 -28q0 -7 -7 -19l-387 -731l-2 -3q-11 -20 -23 -20t-36 12t-24 25q0 12 7 24zM208 483q60 0 60 67q0 36 -14 51t-46 15t-46 -16t-14 -50q0 -36 15 -52t45 -15zM85 685q45 51 125 51t124 -50t43 -138q1 -88 -43 -136t-122 -49 q-78 0 -126 50q-46 49 -46 135t45 137zM629 118q61 0 61 68q0 36 -14 51t-46 15t-46 -16t-14 -51t14 -51t45 -16zM506 321q46 51 126 51t123 -50t43 -138t-43 -138q-43 -48 -122 -48t-125 50t-47 136q0 86 45 137z" unicode="%" horiz-adv-x="838" glyph-name="percent"/>
<glyph d="M289 140q25 0 45 4q-58 52 -110 124q-23 -29 -23 -60q0 -68 88 -68zM258 585q0 -36 17 -81q47 30 71 50t23 38q0 44 -49 44q-62 0 -62 -51zM646 -1q-87 0 -172 45q-95 -52 -192 -52q-257 0 -257 214q0 111 115 206q-40 89 -40 161q0 100 60 148t161 48t153 -48t52 -131 q0 -70 -57 -126q-42 -42 -118 -93q59 -78 128 -132q28 43 39 88q10 44 90 44q34 0 52 -9q18 -8 20 -18t1 -25q-4 -76 -62 -151q15 -3 28 -3q78 0 78 -79q0 -55 -18 -71t-61 -16z" unicode="&amp;" horiz-adv-x="748" glyph-name="ampersand"/>
<glyph d="M161 472q-21 -91 -57 -91t-58 91t-21 163q0 63 17 79q22 19 56 19q34 1 52 -7t24 -24q9 -25 9 -82t-22 -148z" unicode="&apos;" horiz-adv-x="208" glyph-name="quotesingle"/>
<glyph d="M262 -76q22 -22 41 -23q19 0 27 -1t20 -7q10 -6 14 -20t5 -37q-1 -22 -5 -36t-15 -20q-17 -8 -45 -8q-68 0 -122 48t-87 122q-65 154 -65 330q0 175 62 328q32 78 87 126t126 49q30 0 43 -7q21 -13 21 -58q0 -47 -18 -56q-14 -8 -41 -8h-6q-39 0 -80 -89 q-20 -43 -32 -117t-12 -167q0 -92 12 -166q12 -73 30 -117t40 -66z" unicode="(" horiz-adv-x="384" glyph-name="parenleft"/>
<glyph d="M54 -100q8 1 27 1q19 1 41 23t40 66q42 99 42 284q0 92 -12 166t-32 117q-41 89 -80 89h-6q-27 0 -39 6q-20 12 -20 56t16 56t48 11q71 -1 126 -49t87 -126q62 -153 62 -328q0 -176 -65 -330q-33 -74 -87 -122t-122 -48q-51 0 -60 28q-5 13 -5 36q1 23 5 37t14 20 q12 6 20 7z" unicode=")" horiz-adv-x="384" glyph-name="parenright"/>
<glyph d="M480 579q8 -27 8 -43t-10 -30q-10 -13 -21 -18t-33 -13l-42 -13l33 -46l8 -12q13 -22 13 -33q0 -29 -39 -57t-56 -28t-28 7q-15 10 -32 34l-29 40l-37 -50q-23 -33 -45 -33t-62 29t-41 57q0 17 21 46l33 46l-42 13q-36 7 -54 29q-10 13 -10 31t7 40q22 66 58 66 q14 -1 27 -5l13 -4l51 -16v52q1 34 9 50t26 21t46 5t46 -6t25 -18q10 -19 10 -57v-47l49 16q32 10 42 10q35 0 56 -63z" unicode="*" horiz-adv-x="503" glyph-name="asterisk"/>
<glyph d="M343 353h81q35 -1 51 -9q15 -8 21 -25t6 -45t-5 -46q-5 -17 -17 -24q-18 -9 -51 -9h-86v-81q-1 -35 -9 -51q-8 -15 -25 -21t-45 -6t-46 6q-17 6 -24 18q-9 19 -9 55v80h-87q-33 0 -48 8q-15 7 -20 25t-5 46q-1 28 5 46t20 24q19 9 55 9h80v81q0 35 8 51q7 15 25 21t46 6 t46 -6t24 -18q9 -19 9 -55v-80z" unicode="+" horiz-adv-x="527" glyph-name="plus"/>
<glyph d="M66 180q20 6 64 6t64 -20t19 -75q0 -21 -3 -39q-9 -85 -56 -148t-110 -63q-6 1 -12 11t-6 26t4 27t12 13q6 2 14 8t21 26q13 21 15 48q-32 4 -50 22q-17 17 -17 54q1 38 3 54q2 12 10 27q8 17 28 23z" unicode="," horiz-adv-x="238" glyph-name="comma"/>
<glyph d="M335 139h-238q-56 0 -67 34q-5 18 -5 46t6 45t19 24q18 9 48 9h238q56 0 66 -33q6 -18 6 -46t-6 -46t-17 -24q-18 -9 -50 -9z" unicode="-" horiz-adv-x="433" glyph-name="hyphen"/>
<glyph d="M195 165q17 -17 17 -70v-4q0 -23 -2 -35t-10 -28q-16 -29 -76 -29t-80 19t-19 72v4q-1 23 1 35t10 27q16 30 76 30t83 -21z" unicode="." horiz-adv-x="237" glyph-name="period"/>
<glyph d="M176 -8q-8 -17 -12 -25q-4 -7 -16 -15q-10 -8 -27 -8t-50 15t-45 27t-11 25q0 14 12 50l322 673q19 38 34 44q7 4 23 4t51 -16q54 -26 54 -57q0 -13 -14 -50z" unicode="/" horiz-adv-x="526" glyph-name="slash"/>
<glyph d="M303 164q103 0 103 196v6q0 201 -102 201q-102 1 -102 -201t101 -202zM182 716q52 28 122 28q68 0 120 -27t82 -67t47 -94q30 -90 30 -191q0 -181 -78 -287q-29 -40 -81 -66t-119 -26q-69 0 -121 26t-82 66q-30 39 -48 93q-29 86 -29 195q-1 100 23 171t53 111t81 68z " unicode="0" horiz-adv-x="608" glyph-name="zero"/>
<glyph d="M218 708q26 26 56 26t48 -5q17 -5 26 -11t14 -22q5 -17 5 -53v-557q1 -22 -1 -34t-10 -27q-14 -27 -78 -27q-62 0 -77 26q-7 16 -9 28t-2 36v357l-13 -12q-41 -31 -70 -31t-61 35t-31 62q0 27 36 59l164 148z" unicode="1" horiz-adv-x="407" glyph-name="one"/>
<glyph d="M506 176q40 0 58 -10t24 -28q6 -20 6 -52t-6 -50q-6 -19 -22 -26q-22 -12 -62 -12h-391q-36 0 -62 27t-26 63q-1 54 37 100t91 78l106 64t91 71q38 40 37 85q0 10 -7 26q-8 16 -16 26t-26 20q-18 9 -50 9q-32 1 -56 -23t-26 -47l-4 -23v-6q0 -22 -2 -33t-9 -25 q-15 -24 -78 -24q-70 0 -83 38q-5 16 -5 51q1 105 75 187t194 82t196 -84q75 -84 75 -190q0 -57 -25 -108t-60 -82q-74 -66 -132 -89l-25 -10v-5h183z" unicode="2" horiz-adv-x="609" glyph-name="two"/>
<glyph d="M496 674q71 -70 71 -158t-78 -126v-7q9 -5 29 -21t32 -33q33 -42 33 -96q0 -107 -80 -177t-201 -69q-120 0 -200 70q-30 27 -53 71q-8 16 -11 26l-2 10q-11 33 -11 54q0 58 98 58q40 0 53 -10q17 -13 30 -52q10 -32 55 -48q19 -6 42 -6q53 0 78 22t25 48q0 28 -24 48 t-58 20t-46 2t-26 10q-27 13 -27 77q0 70 37 83q17 5 52 5q76 0 76 39q0 21 -20 40t-56 19t-56 -12q-21 -12 -26 -24l-6 -12q-23 -50 -66 -50q-25 0 -55 18q-50 29 -50 67q0 16 23 68q4 10 22 32t42 39t66 31t94 14q123 0 194 -70z" unicode="3" horiz-adv-x="608" glyph-name="three"/>
<glyph d="M412 728q20 6 52 6t50 -6q19 -6 27 -22q7 -14 9 -26t2 -35v-556q0 -39 -10 -57t-28 -25q-20 -6 -49 -6t-46 5t-26 12t-13 20q-6 17 -6 52v122h-271q-70 0 -83 38q-5 16 -5 43t3 40l83 335q7 23 11 35t18 23t34 11q21 0 46 -7q70 -19 70 -64q0 -16 -7 -42q-1 -2 -1 -3 l-61 -244h163v273q0 23 2 34t9 25q7 13 27 19z" unicode="4" horiz-adv-x="592" glyph-name="four"/>
<glyph d="M156 735l152 -1h94q24 0 35 -2t26 -9q27 -14 27 -80q0 -60 -25 -73q-15 -8 -25 -10t-32 -1h-175q-2 -12 -10 -76q11 2 35 2q95 1 171 -71t76 -176t-72 -178t-179 -74q-93 0 -168 47q-17 11 -25 19l-8 7q-38 33 -38 60t37 65q30 33 58 33t67 -32q19 -21 63 -21t66 19 t21 53q1 34 -23 52q-24 20 -54 20t-48 -18q-26 -23 -54 -23t-64 19q-36 18 -46 30q-11 12 -11 25t20 161t21 154t7 21q7 15 15 27t26 22t40 9z" unicode="5" horiz-adv-x="530" glyph-name="five"/>
<glyph d="M283 151q77 0 77 67q0 23 -18 43t-56 20q-38 -1 -58 -19t-21 -37q1 -19 3 -29t9 -22q14 -23 64 -23zM535 224q-1 -101 -73 -169t-175 -68q-130 -1 -196 83t-66 216q1 191 109 319t296 128q38 1 56 -9t23 -29q6 -19 6 -48t-5 -46t-12 -26t-20 -13q-17 -6 -58 -6 q-42 0 -80 -14t-60 -34q-44 -41 -54 -74l-5 -14q37 17 74 17q99 1 169 -65t71 -148z" unicode="6" horiz-adv-x="560" glyph-name="six"/>
<glyph d="M458 732q70 0 82 -38q6 -16 6 -56t-26 -100t-62 -117q-36 -58 -74 -117q-88 -143 -88 -230q0 -22 -2 -32t-10 -22t-26 -16t-51 -4t-51 4t-26 16t-10 22t-1 34q0 66 22 134t53 122t62 100t53 78t22 45h-228q-40 0 -58 10t-24 29t-6 50t6 50t19 26q21 12 58 12h360z" unicode="7" horiz-adv-x="561" glyph-name="seven"/>
<glyph d="M292 155q44 0 66 24q22 23 22 51t-22 52t-66 24t-67 -24t-23 -51q0 -28 23 -52t67 -24zM341 560q-17 18 -51 18t-49 -17q-16 -17 -16 -37q-1 -20 17 -39q18 -18 50 -18t50 18q16 18 16 38q0 19 -17 37zM557 235q1 -113 -81 -181t-185 -68t-185 68t-81 181q1 41 21 81 t40 58l21 19q-7 6 -17 16q-10 9 -26 43t-17 70q0 98 74 162t172 64t170 -65t72 -166q-1 -30 -15 -61t-29 -47l-15 -16q8 -7 22 -21t36 -54q22 -41 23 -83z" unicode="8" horiz-adv-x="582" glyph-name="eight"/>
<glyph d="M276 581q-77 0 -77 -67q-1 -23 17 -43t57 -20q39 1 59 19t21 36q-1 18 -3 30q-2 10 -10 22q-15 23 -64 23zM25 508q0 101 72 169t175 68q131 1 197 -83t66 -216q0 -191 -108 -319t-295 -128h-6q-38 0 -54 10q-28 17 -28 79q0 70 38 82q17 6 58 6q42 0 80 14t59 34 q43 41 55 74l5 14q-38 -17 -75 -17q-98 -1 -168 65t-71 148z" unicode="9" horiz-adv-x="560" glyph-name="nine"/>
<glyph d="M194 166q20 -20 19 -75q-1 -23 -3 -35t-10 -28q-16 -29 -76 -29q-60 -1 -80 19t-19 76q0 58 21 74q24 18 76 18t72 -20zM194 485q20 -20 19 -75q-1 -24 -3 -36t-10 -27q-16 -29 -76 -29t-80 20t-19 75q0 58 21 74q24 18 76 18t72 -20z" unicode=":" horiz-adv-x="238" glyph-name="colon"/>
<glyph d="M195 165q17 -17 17 -70v-4q0 -110 -58 -188q-47 -63 -110 -63q-6 0 -12 10t-6 28q0 16 4 26t12 12q7 2 14 8q6 6 20 28t16 48q-33 4 -50 20t-17 70v4q-1 23 1 35t10 27q16 30 76 30t83 -21zM195 484q17 -18 17 -70v-4q0 -24 -2 -36t-10 -27q-16 -29 -76 -29t-80 19 t-19 72v4q-1 23 1 35t10 28q16 29 76 29t83 -21z" unicode=";" horiz-adv-x="237" glyph-name="semicolon"/>
<glyph d="M54 275q-39 19 -39 69t40 70q343 203 394 234t61 34q11 5 26 5q27 0 56 -49q19 -30 19 -46t-7 -27q-9 -16 -41 -37q-298 -176 -310 -184l310 -184q19 -11 27 -18q22 -18 22 -39t-18 -49t-31 -40q-14 -12 -29 -12q-20 0 -52 19z" unicode="&lt;" horiz-adv-x="627" glyph-name="less"/>
<glyph d="M383 42h-289q-53 0 -64 32q-5 18 -5 44q-1 26 5 42t18 23q19 9 47 9h289q52 0 62 -32q6 -16 6 -43t-5 -43t-17 -24q-12 -6 -20 -7t-27 -1zM383 254h-289q-52 0 -62 32q-6 18 -6 44t6 42t17 23q18 9 46 9h289q53 0 64 -32q5 -16 5 -43t-5 -43t-17 -24q-13 -6 -21 -7 t-27 -1z" unicode="=" horiz-adv-x="478" glyph-name="equal"/>
<glyph d="M571 414q40 -20 40 -70t-39 -69l-427 -254q-29 -18 -51 -18q-18 0 -31 11q-14 12 -29 36q-20 33 -20 48t6 26q11 17 43 36l311 184l-310 184q-18 11 -27 18q-22 19 -22 41q0 20 17 48q31 52 58 52q24 0 54 -19z" unicode="&gt;" horiz-adv-x="627" glyph-name="greater"/>
<glyph d="M198 179q20 7 64 7t64 -20t19 -75q0 -39 -10 -59q-11 -20 -31 -26t-63 -7q-43 0 -66 21q-17 17 -17 58v16q0 23 2 35q2 11 9 27q9 16 29 23zM173 335l1 8q0 43 24 68t54 33t54 27t24 51t-18 51q-18 18 -56 18q-36 1 -54 -11t-22 -24l-3 -12q-9 -26 -21 -40t-31 -13 q-19 0 -50 12q-60 23 -60 57q0 14 6 30t10 26q3 10 21 37q18 25 40 45t64 36q41 16 91 17q106 0 173 -68t67 -158q1 -43 -15 -79t-38 -58q-44 -42 -82 -56l-16 -5q0 -17 -2 -26t-8 -19q-8 -10 -26 -16q-18 -4 -46 -4t-46 5t-25 17t-9 22t-1 29z" unicode="?" horiz-adv-x="512" glyph-name="question"/>
<glyph d="M374 240q16 -16 42 -17t46 19t24 44v6q0 22 -14 40t-43 18q-28 0 -48 -20t-23 -44v-7q0 -23 16 -39zM848 444q36 -78 35 -166q0 -88 -24 -148t-63 -97q-79 -74 -174 -74q-66 0 -110 40t-44 109q0 8 2 24q-33 -36 -91 -36q-57 0 -103 50t-46 119q0 89 66 151t128 61 q62 0 85 -40q5 21 19 31t48 10t46 -10t13 -24q0 -14 -2 -30l-34 -256q-7 -41 -7 -53q0 -13 8 -17t23 -4q16 0 31 4q14 4 34 16t35 33q36 48 36 128t-26 133t-71 84q-92 62 -222 62t-210 -74t-80 -199q0 -126 62 -201t194 -75h19q23 1 33 -11t10 -43t-4 -45t-16 -18 q-14 -8 -43 -8q-176 0 -278 108t-102 292q0 122 58 214q59 92 151 138t194 46t180 -24q80 -24 142 -74q62 -48 98 -126z" unicode="@" horiz-adv-x="908" glyph-name="at"/>
<glyph d="M382 441l-66 -137h133zM463 681l270 -558q17 -34 17 -51q0 -36 -58 -65q-34 -17 -54 -17t-32 9t-18 19t-15 30l-52 108h-277l-52 -108q-10 -20 -16 -29t-18 -19t-32 -9q-20 0 -53 17q-58 28 -58 64q0 17 17 51l270 559q12 23 34 37t47 14q54 0 80 -52z" unicode="A" horiz-adv-x="765" glyph-name="A"/>
<glyph d="M444 246q0 24 -6 38t-18 20q-20 8 -56 8t-54 14t-18 58t18 57q18 14 62 14q40 0 48 21q3 11 3 36q-1 25 -17 35t-49 10h-140v-379h164q63 0 63 68zM562 393q59 -70 59 -157q-3 -100 -69 -168t-161 -67h-263q-70 0 -82 38q-6 17 -6 52v555q0 24 2 35t9 26q14 27 78 27h252 q92 0 154 -64q65 -65 65 -156q0 -66 -38 -121z" unicode="B" horiz-adv-x="646" glyph-name="B"/>
<glyph d="M498 192l18 13q34 20 48 20q31 0 67 -56q22 -35 22 -56q1 -21 -13 -35t-32 -25t-34 -21t-68 -26q-50 -16 -98 -16t-96 12t-100 42t-93 72t-67 110q-26 66 -27 144q0 78 26 142q27 64 67 104q40 42 92 70q98 54 197 54q47 0 95 -14t74 -30l24 -14q18 -11 28 -18 q26 -22 26 -48t-21 -55q-39 -54 -70 -54q-18 0 -51 22q-42 34 -112 34q-65 0 -128 -45q-30 -22 -50 -62t-20 -90t20 -91q20 -40 51 -63q61 -44 127 -44q30 0 58 8t40 16z" unicode="C" horiz-adv-x="679" glyph-name="C"/>
<glyph d="M444 232q58 54 58 134q0 82 -56 136t-133 54h-96v-378h97q72 0 130 54zM129 734l185 -1q145 -1 255 -105t110 -256q1 -152 -107 -262q-108 -109 -261 -109h-183q-61 0 -76 25q-12 21 -12 64v556q0 24 2 35t9 26q14 27 78 27z" unicode="D" horiz-adv-x="704" glyph-name="D"/>
<glyph d="M217 177h308q23 1 35 -1t26 -10q27 -14 27 -78q0 -70 -37 -82q-17 -6 -52 -6h-396q-70 0 -82 38q-6 16 -6 51v556q0 51 19 69t72 19h394q23 1 35 -1t26 -10q27 -14 27 -78q0 -70 -37 -82q-17 -6 -52 -6h-307v-101h198q23 1 35 -1t26 -10q27 -14 27 -78q0 -70 -38 -82 q-17 -6 -52 -6h-196v-101z" unicode="E" horiz-adv-x="638" glyph-name="E"/>
<glyph d="M525 733q23 1 35 -1t26 -10t20 -27t6 -51t-6 -51t-21 -27t-27 -8q-12 -2 -35 -2h-306v-101h197q24 1 36 -1t26 -10q26 -15 26 -79q0 -70 -38 -83q-16 -5 -51 -5h-196v-189q1 -24 -1 -35t-10 -26q-14 -27 -78 -27q-70 0 -82 38q-6 16 -6 51v556q0 51 19 69t72 19h394z" unicode="F" horiz-adv-x="637" glyph-name="F"/>
<glyph d="M422 442h176q54 -2 66 -28q10 -19 10 -56v-220q0 -32 -28 -61q-84 -87 -252 -87q-149 0 -259 112t-110 272t112 266t264 106q118 0 223 -78q27 -20 27 -44t-23 -57q-39 -53 -71 -53q-19 0 -61 28t-100 27q-76 1 -135 -53t-59 -140t60 -148q60 -60 136 -60q55 0 99 18v109 h-79q-31 0 -44 8q-13 7 -17 23t-4 42q1 26 5 43q4 16 16 22q18 9 48 9z" unicode="G" horiz-adv-x="714" glyph-name="G"/>
<glyph d="M520 727q19 6 48 6t46 -5t26 -12t14 -20q5 -17 5 -52v-555q1 -23 -1 -35t-10 -26q-14 -27 -78 -27q-70 0 -82 37q-6 17 -6 52v203h-265v-204q1 -23 -1 -35t-10 -26q-14 -27 -78 -27q-70 0 -82 37q-6 17 -6 52v555q0 23 2 35t9 26q14 27 78 27q70 0 83 -37q5 -17 5 -52 v-204h265v205q0 23 2 35t9 26q8 15 27 21z" unicode="H" horiz-adv-x="699" glyph-name="H"/>
<glyph d="M40 645q0 23 2 35t9 26q14 27 78 27q70 0 83 -37q5 -17 5 -52v-556q1 -24 -1 -35t-10 -26q-14 -27 -78 -27q-70 0 -82 38q-6 16 -6 51v556z" unicode="I" horiz-adv-x="257" glyph-name="I"/>
<glyph d="M472 726q18 -6 26 -21q11 -23 11 -62v-387q0 -106 -76 -186t-194 -80q-66 0 -117 29q-46 25 -64 45l-8 8q-35 38 -35 64t35 62t62 36t60 -33q34 -33 72 -33t63 26t25 69v374q0 60 20 77q23 19 62 19q40 -1 58 -7z" unicode="J" horiz-adv-x="549" glyph-name="J"/>
<glyph d="M354 368q153 -147 217 -221q33 -37 33 -63t-40 -60t-66 -34t-61 42l-220 251v-195q1 -24 -1 -35t-10 -26q-14 -27 -78 -27q-70 0 -82 38q-6 16 -6 51v556q0 23 2 35t9 26q14 27 78 27q70 0 83 -37q5 -17 5 -52v-191q136 153 220 251q35 41 61 41q26 -1 66 -35t40 -60 t-30 -60q-58 -67 -180 -184z" unicode="K" horiz-adv-x="639" glyph-name="K"/>
<glyph d="M217 148h272q33 0 48 -8t20 -23q5 -17 5 -43t-5 -42t-17 -22q-19 -10 -52 -10h-360q-70 0 -82 38q-6 16 -6 51v556q0 23 2 35t9 26q14 27 78 27q70 0 83 -37q5 -17 5 -52v-496z" unicode="L" horiz-adv-x="587" glyph-name="L"/>
<glyph d="M819 705q7 -15 9 -27t2 -35v-555q0 -69 -38 -81q-19 -6 -48 -6t-46 5t-26 12t-14 20q-5 17 -5 52v335q-25 -31 -73 -99t-61 -84q-13 -18 -18 -24t-25 -18t-42 -11t-40 11t-27 20l-8 11q-20 25 -79 107t-64 87v-337q0 -22 -2 -34t-9 -26q-15 -27 -78 -27q-61 0 -76 27 q-7 14 -9 26t-2 36v555q0 23 2 35t9 26q15 26 78 26q27 0 47 -6t25 -14l6 -6l227 -298q170 225 227 297q17 27 81 27t77 -27z" unicode="M" horiz-adv-x="870" glyph-name="M"/>
<glyph d="M542 726q20 6 48 6t46 -5t26 -12t12 -21q6 -16 6 -51v-555q0 -24 -2 -35t-9 -26q-14 -27 -78 -27q-39 0 -54 6t-25 19q-225 300 -296 392v-329q0 -24 -2 -35t-9 -26q-14 -27 -78 -27q-62 0 -76 27q-7 15 -9 27t-2 35v558q0 37 10 55t28 24q19 6 49 6q29 0 47 -6t25 -12 q4 -3 23 -26q211 -287 282 -379v338q0 37 10 55t28 24z" unicode="N" horiz-adv-x="720" glyph-name="N"/>
<glyph d="M260 220q58 -56 128 -55q71 0 128 54t57 145q1 91 -57 146t-129 55q-71 1 -128 -55t-57 -145t58 -145zM384 742q148 0 257 -107t109 -265t-104 -270t-256 -112t-258 110t-107 262q0 84 30 156t80 121t115 77t134 28z" unicode="O" glyph-name="O"/>
<glyph d="M402 401q29 22 29 66q0 45 -29 67t-60 22h-125v-177h126q30 0 59 22zM607 467q0 -65 -26 -117t-67 -84q-83 -64 -172 -64h-125v-113q1 -23 -1 -35t-10 -26q-14 -27 -78 -27q-70 0 -82 37q-6 17 -6 52v555q0 23 2 35t9 26q14 27 78 27h214q88 0 171 -64q41 -31 67 -84 t26 -118z" unicode="P" horiz-adv-x="632" glyph-name="P"/>
<glyph d="M260 220q58 -56 128 -55q71 0 128 54t57 145q1 91 -57 146t-129 55q-71 1 -128 -55t-57 -145t58 -145zM713 199q46 -31 66 -45q36 -28 36 -52t-30 -68t-61 -44q-19 0 -58 27q-5 3 -28 19t-36 24q-93 -72 -209 -72q-155 0 -261 110t-107 262q0 84 30 156t80 121t115 77 t134 28q148 0 257 -107t109 -271q0 -83 -37 -165z" unicode="Q" horiz-adv-x="830" glyph-name="Q"/>
<glyph d="M217 379h128q29 0 58 22t29 66q0 45 -29 67t-60 22h-126v-177zM601 124q15 -36 15 -52q0 -38 -62 -64q-32 -14 -52 -14t-32 10t-18 19q-10 19 -78 181l-31 -2h-126v-113q1 -23 -1 -35t-10 -26q-14 -27 -78 -27q-70 0 -82 37q-6 17 -6 52v555q0 23 2 35t9 26q14 27 78 27 h216q88 0 171 -64q40 -31 66 -84t26 -118q0 -113 -75 -186q22 -53 68 -157z" unicode="R" horiz-adv-x="631" glyph-name="R"/>
<glyph d="M51 103q-26 31 -26 57t43 68q25 24 53 24t78 -50q14 -16 40 -32t48 -16q93 0 93 76q0 22 -26 38t-63 23q-38 7 -82 23t-82 36q-37 20 -63 66t-26 110q0 88 66 154t178 65q60 1 110 -15t68 -32l25 -19q31 -29 31 -49t-24 -55q-34 -50 -70 -50q-21 0 -52 20q-4 2 -12 10 t-15 13q-21 13 -53 13q-32 1 -54 -15t-22 -44t26 -44q26 -17 63 -23q38 -7 83 -19t83 -30q37 -18 63 -62t26 -110q0 -64 -26 -114t-68 -77q-81 -53 -173 -53q-47 0 -89 12t-68 28q-53 32 -74 62z" unicode="S" horiz-adv-x="583" glyph-name="S"/>
<glyph d="M88 734h556q32 0 47 -8t20 -23q5 -16 5 -42q0 -25 -5 -41t-17 -22q-18 -9 -51 -9h-191v-503q0 -23 -2 -34q-2 -12 -8 -26q-8 -14 -27 -20t-50 -6t-49 6t-26 20t-10 26t-1 35v502h-192q-32 -1 -47 7t-20 24t-5 42t5 42t17 21q18 9 51 9z" unicode="T" horiz-adv-x="731" glyph-name="T"/>
<glyph d="M548 728q20 6 48 6t45 -5t26 -12t13 -21q6 -17 6 -52v-302q0 -132 -82 -240q-40 -50 -103 -82t-139 -32t-140 32q-62 32 -101 84q-81 106 -81 240v301q0 23 2 35t9 27q8 15 27 21t51 6t51 -6t26 -21q12 -23 12 -63v-300q0 -61 30 -116q15 -28 45 -45t71 -17q73 0 109 54 t36 125v306q0 39 10 55t29 22z" unicode="U" horiz-adv-x="726" glyph-name="U"/>
<glyph d="M709 722q59 -29 59 -64q0 -16 -15 -48l-276 -560q-11 -22 -33 -36t-47 -13h-10q-25 -1 -47 13t-34 36l-276 560q-15 32 -15 48q0 35 59 64q32 17 50 17t27 -4t17 -14q8 -13 16 -27t39 -82t67 -146t66 -146q32 -68 36 -76l200 438q8 19 14 30q18 27 44 27t59 -17z" unicode="V" horiz-adv-x="783" glyph-name="V"/>
<glyph d="M917 729q67 -24 67 -64q0 -13 -12 -49l-192 -555q-2 -7 -7 -17t-27 -26t-50 -17q-30 1 -52 17t-28 32l-117 345q-111 -328 -113 -334t-9 -17t-16 -20q-23 -23 -55 -23t-52 15t-28 30l-7 15l-193 555q-11 33 -11 49q0 40 67 63q28 10 52 10t36 -16t23 -49l110 -334 l109 329q14 42 51 58q15 7 41 7q26 -1 48 -17t28 -32l115 -347l110 336q8 23 13 34q4 11 18 21t34 11q20 0 47 -10z" unicode="W" horiz-adv-x="999" glyph-name="W"/>
<glyph d="M491 371l201 -221q34 -38 34 -64t-38 -61t-66 -35q-26 0 -61 40l-190 218l-190 -218q-35 -40 -61 -40t-66 36t-39 60q0 25 35 64l201 221l-201 221q-35 37 -35 63q0 25 39 61q40 36 66 36t61 -40l190 -218l190 218q35 40 61 40t65 -35t39 -62t-34 -63z" unicode="X" horiz-adv-x="741" glyph-name="X"/>
<glyph d="M622 719q49 -34 49 -66q0 -19 -23 -53l-216 -323v-191q0 -22 -2 -34t-9 -27q-8 -15 -27 -21t-51 -6t-51 6t-27 22q-7 16 -9 26q-2 12 -2 36v189l-216 323q-23 34 -23 53q0 31 44 61t63 30t30 -8q17 -11 36 -41l155 -248l155 248q19 29 33 39q15 10 33 10t58 -25z" unicode="Y" horiz-adv-x="686" glyph-name="Y"/>
<glyph d="M531 171q39 1 57 -9t24 -28t6 -46t-5 -45t-12 -26t-21 -13q-16 -6 -51 -6h-416q-23 0 -44 12q-44 25 -44 79q0 26 12 42l310 429h-230q-23 0 -35 2t-28 8q-29 14 -29 75q0 64 27 78q14 7 26 9t36 2h402q23 0 44 -12q20 -12 32 -32t12 -47t-12 -43l-310 -429h249z" unicode="Z" horiz-adv-x="643" glyph-name="Z"/>
<glyph d="M202 -82h74q25 0 37 -8q20 -12 20 -65q0 -51 -18 -62q-15 -9 -40 -9h-154q-58 0 -71 26q-10 21 -10 61v826q0 39 8 57t27 23q18 6 47 6h154q25 0 37 -7q20 -13 20 -66q0 -51 -18 -62q-15 -9 -40 -9h-73v-711z" unicode="[" horiz-adv-x="348" glyph-name="bracketleft"/>
<glyph d="M351 -8l-323 673q-13 27 -13 42q0 32 56 59q35 16 51 16t23 -4q8 -4 15 -11q7 -10 19 -33l320 -668q14 -36 14 -52t-12 -28q-13 -12 -45 -27t-52 -15t-31 12t-22 36z" unicode="\" horiz-adv-x="528" glyph-name="backslash"/>
<glyph d="M226 773q59 0 72 -27q10 -20 10 -59v-826q0 -39 -8 -57t-26 -24t-47 -6h-154q-46 0 -54 30q-4 16 -4 42t4 41q4 16 13 22q15 9 40 9h74v711h-73q-46 0 -54 31q-4 14 -4 40t4 42t13 22q15 9 40 9h154z" unicode="]" horiz-adv-x="348" glyph-name="bracketright"/>
<glyph d="M215 519q23 25 42 25h11q20 0 44 -25l147 -148q16 -15 21 -23t5 -14q0 -8 -3 -21t-26 -36t-36 -26t-21 -3q-12 0 -37 25l-99 99l-98 -99q-15 -15 -22 -20t-15 -5t-22 3t-36 26q-23 23 -26 36t-3 20q0 14 26 38z" unicode="^" horiz-adv-x="526" glyph-name="asciicircum"/>
<glyph d="M76 -228q-48 0 -56 29q-5 15 -5 40q1 25 5 40t14 21q17 8 43 8h673q48 0 56 -30q5 -16 5 -40q-1 -24 -5 -39t-14 -21q-15 -8 -43 -8h-673z" unicode="_" horiz-adv-x="826" glyph-name="underscore"/>
<glyph d="M355 576q-5 -6 -17 -6t-33 6l-165 52q-26 9 -35 19t-9 25t8 42q17 51 39 57q8 2 12 2q10 0 74 -20t99 -31t42 -14q22 -11 22 -32t-8 -45q-8 -25 -16 -37t-13 -18z" unicode="`" horiz-adv-x="482" glyph-name="grave"/>
<glyph d="M226 204q26 -26 63 -27q37 0 61 27q24 28 25 60t-23 60t-64 28t-64 -28t-24 -61t26 -59zM382 471q6 56 79 56q39 0 58 -6t27 -21q8 -14 8 -26q2 -12 2 -35v-350q0 -23 -2 -35t-8 -26q-14 -26 -68 -26t-74 14q-18 14 -21 39q-37 -53 -123 -53t-161 79q-74 79 -74 183 q1 104 75 184q74 78 163 78q34 0 62 -12t39 -22t18 -21z" unicode="a" horiz-adv-x="596" glyph-name="a"/>
<glyph d="M303 176q37 0 63 27t26 60t-24 61t-64 27q-40 0 -64 -28q-24 -29 -23 -61t25 -59t61 -27zM329 526q89 0 163 -79t75 -183q0 -104 -74 -184q-74 -78 -159 -78t-121 48q-8 -49 -86 -49q-63 0 -77 27q-6 14 -8 26t-2 35v597q0 22 2 34t8 26q14 27 78 27q63 0 76 -27 q8 -14 10 -26t1 -35v-208q40 49 114 49z" unicode="b" horiz-adv-x="592" glyph-name="b"/>
<glyph d="M233 198q27 -24 59 -24t60 18t44 19q30 0 73 -53q23 -29 23 -52q0 -38 -55 -71q-57 -40 -140 -40q-93 0 -179 67q-41 32 -67 86t-26 118t26 116t67 85q83 66 177 66q38 -1 74 -11t53 -20l16 -10q18 -12 28 -19q26 -19 26 -45t-21 -58q-36 -55 -69 -55q-19 0 -54 22 q-18 17 -52 17t-62 -24q-29 -24 -29 -66t28 -66z" unicode="c" horiz-adv-x="517" glyph-name="c"/>
<glyph d="M294 176q38 0 62 27t24 59t-24 61q-24 28 -63 28q-40 1 -64 -27t-24 -61t26 -60t63 -27zM420 767q18 6 50 6t51 -6t27 -21q8 -14 8 -26q2 -12 2 -35v-597q0 -22 -2 -34t-9 -26q-15 -27 -85 -27t-77 49q-42 -48 -117 -48q-90 0 -164 78t-74 184q0 104 74 183t164 79 q74 0 115 -50v210q-1 22 1 34t10 26t26 21z" unicode="d" horiz-adv-x="598" glyph-name="d"/>
<glyph d="M337 297q38 0 38 32q1 23 -17 37t-50 14t-65 -26q-32 -26 -32 -57h126zM518 236q-30 -30 -68 -30h-237q0 -28 33 -47t66 -19q58 0 91 12l11 4q24 11 40 11q32 0 55 -45q13 -27 13 -46q0 -89 -213 -89q-73 -1 -131 25t-90 68q-63 81 -63 181q-1 125 81 201t204 76 q139 0 204 -98q34 -52 34 -114q0 -60 -30 -90z" unicode="e" horiz-adv-x="573" glyph-name="e"/>
<glyph d="M348 526q69 0 81 -38q6 -19 6 -50q-1 -32 -7 -50t-20 -26q-21 -12 -61 -12l-64 4v-268q1 -38 -9 -56t-30 -25q-20 -6 -50 -6q-32 1 -50 7t-26 20t-10 27q-2 12 -1 35v265h-36q-26 2 -37 12q-19 19 -19 73q0 82 59 82h33v53q0 77 55 139t159 63q23 1 35 -1t26 -10 q27 -13 27 -77q0 -48 -17 -69q-14 -16 -44 -18h-28q-37 0 -37 -25v-55z" unicode="f" horiz-adv-x="450" glyph-name="f"/>
<glyph d="M222 212q26 -26 62 -26t60 26t24 58t-23 60t-62 27q-39 0 -63 -27q-24 -28 -24 -60t26 -58zM374 66q-38 -50 -121 -50t-155 76t-73 179q0 102 73 179t160 77q34 -1 62 -13t38 -22t17 -20q3 28 21 42t56 15q39 0 57 -6q17 -7 25 -21t10 -25t1 -34v-414q0 -115 -80 -185 t-180 -71q-76 0 -145 37t-69 67q0 39 30 69q19 21 29 29t25 8q14 0 29 -12q48 -37 104 -37q38 0 62 30t24 72v30z" unicode="g" horiz-adv-x="585" glyph-name="g"/>
<glyph d="M332 525q100 0 166 -76t67 -186v-176q1 -23 -1 -35t-10 -26q-13 -26 -77 -26q-61 0 -76 26q-7 15 -9 27t-2 36v175q0 41 -23 64t-59 23q-36 1 -62 -21q-27 -22 -31 -49v-194q1 -23 -1 -35t-10 -26q-13 -26 -77 -26q-63 0 -77 27q-6 15 -8 26t-2 35v598q0 22 2 34t8 26 q14 27 78 27q63 0 76 -27q8 -14 10 -26t1 -35v-221q50 61 117 61z" unicode="h" horiz-adv-x="605" glyph-name="h"/>
<glyph d="M178 604q-18 -6 -50 -6t-51 6t-27 21t-8 27q-2 12 -2 34t2 34t8 26q14 27 78 27q63 0 76 -27q8 -14 10 -26t1 -35q1 -23 -1 -35t-10 -26t-26 -20zM40 439q0 23 2 35t8 26q14 26 78 26q48 0 68 -17q17 -14 18 -43q1 -10 1 -29v-350q1 -23 -1 -35t-10 -26q-13 -26 -77 -26 q-63 0 -77 27q-6 15 -8 26t-2 35v351z" unicode="i" horiz-adv-x="255" glyph-name="i"/>
<glyph d="M127 530q31 0 49 -6t26 -20t8 -26q2 -12 2 -35v-412q0 -117 -81 -187t-178 -70q-23 0 -34 2t-25 8q-26 14 -26 73t22 74t58 15t64 20t28 72v412q0 36 10 52t28 22t49 6zM125 600q-31 0 -49 6t-26 20t-8 26q-2 12 -2 35t2 34t8 25q14 26 77 26q60 0 75 -26q6 -13 8 -24 t2 -33v-6q0 -22 -2 -33t-9 -25q-9 -13 -27 -19t-49 -6z" unicode="j" horiz-adv-x="252" glyph-name="j"/>
<glyph d="M350 264l133 -110q25 -21 31 -32t7 -21q0 -24 -31 -65q-34 -42 -60 -42q-22 0 -61 29l-10 7q-23 18 -71 66t-73 68v-77q1 -23 -1 -35t-10 -26q-13 -26 -77 -26q-63 0 -77 27q-6 15 -8 27t-2 34v599q0 23 2 35t8 26q14 27 78 27q48 0 68 -17q17 -14 18 -44q1 -9 1 -28 v-317q19 15 55 51t54 51l12 8q35 27 60 27q26 0 58 -40t32 -64q0 -23 -37 -54z" unicode="k" horiz-adv-x="536" glyph-name="k"/>
<glyph d="M40 687q0 23 2 35t8 26q14 27 78 27q61 0 76 -27q8 -15 10 -27t1 -35v-463q0 -35 6 -45q7 -10 27 -10t27 -2t17 -8q20 -13 20 -71q0 -63 -20 -77q-16 -11 -57 -11q-28 0 -67 5q-77 10 -100 51q-28 49 -28 156v476z" unicode="l" horiz-adv-x="327" glyph-name="l"/>
<glyph d="M212 457q47 71 113 71q102 0 152 -87q11 15 27 31t49 36q34 20 70 20q80 0 134 -62t54 -203v-175q1 -22 -1 -34t-10 -27q-13 -27 -77 -27q-63 0 -77 28q-6 14 -8 26t-2 35v175q0 87 -62 87q-36 0 -48 -23t-12 -65v-175q0 -24 -2 -35t-9 -26q-14 -27 -78 -27q-63 0 -77 28 q-6 14 -8 26t-2 35v175q0 87 -62 87q-60 0 -60 -87v-177q0 -23 -2 -35t-9 -26q-15 -26 -78 -26t-77 27q-6 15 -8 26t-2 35v352q0 22 2 34t9 26q15 27 71 27t73 -18t17 -52z" unicode="m" horiz-adv-x="851" glyph-name="m"/>
<glyph d="M333 527q101 -1 167 -77t66 -186v-176q0 -22 -2 -34t-8 -26q-14 -27 -78 -27q-71 0 -82 37q-6 17 -6 51v176q0 41 -24 64t-62 23q-40 0 -64 -24t-25 -63v-177q1 -22 -1 -34t-10 -26q-13 -27 -77 -27q-63 0 -77 27q-6 14 -8 26t-2 35v354q0 21 2 33t9 26q14 25 77 25 q61 0 75 -23q10 -17 10 -41q4 7 18 20t27 21q34 23 75 23z" unicode="n" horiz-adv-x="606" glyph-name="n"/>
<glyph d="M299 167q33 0 66 25t33 74t-31 73t-67 24t-67 -25q-31 -26 -31 -74t32 -72t65 -25zM109 461q84 78 192 78q108 1 191 -77t83 -198q0 -84 -43 -148q-42 -64 -104 -94t-128 -31q-66 1 -128 33t-104 96t-43 143q0 120 84 198z" unicode="o" horiz-adv-x="600" glyph-name="o"/>
<glyph d="M215 269q-1 -33 23 -59t60 -26t62 26t26 59t-24 59t-62 27q-38 0 -62 -27q-23 -27 -23 -59zM40 -143v584q0 23 2 34t8 25q14 27 67 27q53 1 71 -13t22 -40q38 52 120 52t154 -77q73 -77 73 -179q-1 -102 -73 -179t-154 -77t-119 46v-202q1 -23 -1 -34q-2 -12 -10 -26 t-25 -20q-18 -6 -49 -6q-32 0 -50 6t-26 20t-8 25q-2 11 -2 34z" unicode="p" horiz-adv-x="582" glyph-name="p"/>
<glyph d="M283 184q36 0 60 26t24 58t-23 60q-24 28 -62 27t-62 -27t-24 -59t26 -59t61 -26zM372 474q6 53 78 53q38 0 56 -6q18 -7 26 -21t8 -25q2 -11 2 -34v-584q0 -23 -2 -34t-8 -25q-8 -14 -26 -20t-50 -6q-31 0 -49 6q-17 6 -25 20t-10 26q-2 11 -1 34v202q-40 -46 -113 -46 q-89 0 -161 77t-72 179t73 179q72 77 154 77t120 -52z" unicode="q" horiz-adv-x="582" glyph-name="q"/>
<glyph d="M430 500q12 -14 12 -46t-19 -70t-55 -38q-18 0 -34 8t-44 8q-26 0 -50 -19t-24 -46v-210q0 -23 -2 -35t-9 -26q-15 -26 -78 -26q-48 0 -69 17q-16 14 -18 43v29v351q0 22 2 34t8 26q14 27 78 27q60 0 75 -23q11 -16 11 -33q4 7 14 17t41 27t55 17t39 -2q16 -2 35 -9 q20 -7 32 -21z" unicode="r" horiz-adv-x="457" glyph-name="r"/>
<glyph d="M44 47q-19 12 -19 38t38 79q11 17 35 17q24 -1 67 -25q42 -24 76 -24q61 0 61 24q0 19 -67 28q-63 9 -125 47q-29 19 -48 57t-19 91q0 158 217 158q71 0 146 -34q35 -16 35 -40t-22 -59t-45 -35q-12 0 -44 15t-71 15q-59 0 -59 -22q0 -30 68 -39q66 -7 128 -38 q28 -14 48 -48t20 -87t-20 -89t-54 -54q-64 -31 -160 -31t-186 56z" unicode="s" horiz-adv-x="489" glyph-name="s"/>
<glyph d="M346 350l-65 4v-138q1 -27 9 -39t32 -12q24 1 36 -1t26 -10q23 -13 23 -67q0 -63 -28 -77q-15 -6 -27 -8t-33 -2q-104 0 -158 47t-54 159v148q-19 -3 -41 -3t-36 17t-15 58q0 42 5 60t14 26q16 13 40 13l33 -4v103q-1 23 1 34t10 24q13 25 77 25q68 0 81 -37q5 -16 5 -51 v-98q45 4 67 4q22 1 34 -1t26 -10q26 -13 26 -77q0 -63 -27 -77q-15 -6 -27 -8t-34 -2z" unicode="t" horiz-adv-x="449" glyph-name="t"/>
<glyph d="M274 2q-102 0 -168 76t-66 187v175q0 24 2 35t8 26q14 27 78 27q70 0 82 -38q6 -16 6 -51v-175q0 -41 24 -64t62 -23q40 0 64 24t25 63v177q-1 23 1 35t10 26q13 26 77 26q63 0 77 -27q6 -15 8 -27t2 -34v-354q0 -22 -2 -34t-9 -25q-15 -26 -77 -26q-61 0 -75 24 q-10 17 -10 41q-4 -7 -18 -20t-27 -22q-34 -22 -74 -22z" unicode="u" horiz-adv-x="606" glyph-name="u"/>
<glyph d="M571 515q52 -31 52 -66q0 -20 -20 -55l-207 -355q-10 -17 -32 -31t-44 -13t-40 11q-20 10 -28 21l-9 11l-208 356q-20 33 -20 54q0 36 52 67q38 22 60 22q23 1 35 -13t26 -41l131 -252l131 252q10 19 16 27t18 18q12 8 32 8t55 -21z" unicode="v" horiz-adv-x="638" glyph-name="v"/>
<glyph d="M714 523q64 -28 64 -69q0 -16 -16 -54t-27 -66l-110 -268q-15 -44 -50 -62q-15 -7 -38 -7q-23 -1 -45 17t-28 36l-8 17q-8 20 -59 156q-9 -25 -29 -79t-26 -68t-6 -18q-2 -4 -9 -16t-16 -21q-24 -24 -55 -24q-31 -1 -52 17t-28 36l-151 368q-10 30 -10 39q0 40 57 63 q32 13 52 13q20 -1 32 -9t18 -16q5 -8 8 -18q17 -40 71 -188l59 162q6 20 22 35q29 29 59 29q29 0 51 -16t30 -32l8 -17q50 -140 59 -160l61 166q24 64 72 64q19 0 40 -10z" unicode="w" horiz-adv-x="793" glyph-name="w"/>
<glyph d="M405 264l111 -112q36 -36 36 -62t-36 -60q-36 -36 -61 -36t-61 36l-110 111l-111 -111q-37 -36 -61 -36t-60 36t-37 60q0 26 36 62l111 112l-111 112q-36 36 -36 62q1 26 37 61q36 36 60 36t61 -36l111 -112l110 112q36 36 61 36t61 -36q36 -35 36 -61t-36 -62z" unicode="x" horiz-adv-x="567" glyph-name="x"/>
<glyph d="M530 521q59 -26 59 -63q0 -18 -8 -34t-8 -17l-262 -586q-7 -19 -13 -29t-18 -19t-30 -9t-53 15q-59 26 -59 62q0 24 96 229l-199 335q-20 33 -20 49q0 32 54 64q34 20 53 20t31 -8q11 -8 17 -16t56 -94q50 -84 94 -157q5 15 54 123q48 108 52 115t12 17q12 17 36 17 t56 -14z" unicode="y" horiz-adv-x="604" glyph-name="y"/>
<glyph d="M303 176h171q40 0 58 -10t23 -29q6 -19 6 -50t-6 -50t-21 -27q-14 -8 -26 -8q-12 -2 -35 -2h-361q-35 0 -61 26t-26 62t26 62t80 73q54 49 98 87t48 42h-141q-57 0 -72 19q-17 22 -17 58q0 35 5 53t12 26t20 14q17 5 52 5h325q35 0 61 -25q26 -24 26 -62t-30 -67 t-215 -197z" unicode="z" horiz-adv-x="586" glyph-name="z"/>
<glyph d="M130 -28l1 93q0 64 -2 88q0 48 -60 48h-6q-34 0 -43 31q-5 16 -5 41q1 25 5 41t12 22q13 9 30 9h4q63 0 63 49q1 183 1 204q0 77 46 126t117 49q33 1 48 -7t20 -24t5 -40t-5 -40t-17 -22q-19 -11 -50 -11q-20 0 -20 -39v-170q0 -44 -15 -81t-29 -52l-15 -15q7 -3 19 -18 t20 -32q20 -44 20 -122l-1 -133v-24q0 -12 5 -19q6 -7 20 -7q14 1 24 -1t22 -8q22 -11 22 -62q0 -52 -23 -63q-18 -9 -49 -9q-70 0 -117 50t-47 129v19z" unicode="{" horiz-adv-x="381" glyph-name="braceleft"/>
<glyph d="M40 687q0 68 29 80q15 6 39 6t40 -6q15 -6 21 -21q8 -19 8 -60v-832q0 -68 -29 -80q-16 -6 -40 -6t-39 6t-21 21q-8 20 -8 61v831z" unicode="|" horiz-adv-x="217" glyph-name="bar"/>
<glyph d="M249 65l1 -93v-19q0 -79 -47 -129t-117 -50q-56 0 -66 30q-5 16 -5 42t5 41t17 21q17 9 35 9q18 1 21 1t9 6t5 19v24l-1 146q0 55 15 95t30 52l15 12q-7 6 -17 17q-11 11 -27 49t-16 82l1 170q0 33 -11 38q-4 1 -16 1t-22 2q-10 3 -22 9t-16 22q-5 16 -5 40t5 40t16 22 q18 9 51 9q71 0 117 -49t46 -126l1 -204q0 -49 63 -49h4q35 0 44 -31q4 -16 4 -44t-9 -46t-18 -20t-22 -3h-6q-60 0 -60 -48q-2 -24 -2 -88z" unicode="}" horiz-adv-x="381" glyph-name="braceright"/>
<glyph d="M526 360q47 -32 47 -59q0 -15 -10 -31t-14 -24q-4 -6 -19 -23t-33 -30q-19 -13 -49 -23t-66 -11t-66 15t-50 32t-30 16q-12 0 -20 -4q-13 -7 -13 -12q-31 -48 -57 -48t-62 30q-35 30 -35 48q1 16 15 40t29 40t33 28q48 34 114 34q30 0 56 -10t38 -20q34 -31 49 -31 q25 0 33 11l3 4q31 46 56 46t51 -18z" unicode="~" horiz-adv-x="651" glyph-name="asciitilde"/>
<glyph d="M135 245q32 0 51 -5q18 -5 26 -18t10 -23t1 -31v-317q1 -21 -1 -31t-10 -24q-8 -12 -28 -18t-51 -6q-32 0 -51 6q-18 6 -26 18q-8 14 -10 24t-1 32v317q-1 21 1 31t10 22t28 18q20 5 51 5zM60 342q-20 20 -20 76q0 58 22 74q24 18 76 18t70 -20q20 -20 20 -75 q0 -59 -22 -75q-24 -18 -76 -18q-50 0 -70 20z" unicode="¡" horiz-adv-x="268" glyph-name="exclamdown"/>
<glyph d="M196 232q24 -20 50 -20t47 15t37 15q25 0 60 -43q19 -23 19 -43q0 -31 -45 -58q-24 -17 -62 -26v-80q0 -34 -6 -48t-18 -20q-12 -5 -34 -5t-34 5t-17 18q-7 17 -7 51v81q-68 21 -114 76q-46 54 -47 136q0 82 47 137t114 75v95q0 59 24 69q13 5 34 5q22 0 34 -5t17 -18 q7 -17 7 -52v-92q41 -10 84 -42q22 -14 22 -36t-17 -49q-29 -45 -57 -45q-16 0 -43 18q-15 14 -43 14t-52 -20t-23 -54q-1 -34 23 -54z" unicode="¢" horiz-adv-x="434" glyph-name="cent"/>
<glyph d="M298 163h280q37 -1 54 -9q16 -8 22 -26t6 -47t-6 -47t-20 -24q-19 -10 -57 -10h-416q-33 0 -57 20t-24 62q0 24 16 44t32 47t17 68q0 14 -9 50h-60q-49 0 -57 29q-4 14 -4 38q1 24 5 38t16 21q15 8 47 8h23q-1 10 -1 29q-1 76 31 142t102 102q70 37 153 37q109 0 187 -53 q22 -15 26 -20l10 -9q27 -33 27 -61q1 -28 -29 -56q-30 -26 -61 -26t-53 28q-9 12 -40 23t-63 11q-73 0 -101 -36t-27 -80v-10q0 -15 3 -21h101q29 0 42 -7q21 -12 21 -61q0 -46 -19 -57q-15 -9 -43 -9h-69q6 -30 6 -60t-11 -68z" unicode="£" horiz-adv-x="675" glyph-name="sterling"/>
<glyph d="M333 244q73 0 111 30t38 112q0 80 -37 112t-107 32t-106 -32t-36 -110q0 -144 137 -144zM572 191q7 -4 31 -33q49 -58 49 -84t-34 -48t-54 -21q-21 0 -44 41q-4 4 -17 26q-15 30 -161 30h-20q-128 0 -148 -29l-16 -28q-16 -26 -26 -33t-24 -7t-42 15q-41 23 -41 51 q0 17 16 42q33 58 66 79q-61 73 -61 195t61 197q-11 7 -33 31q-22 23 -34 49t-12 40q0 28 32 48t46 20t24 -7t14 -13t12 -19q7 -12 14 -23t14 -16q7 -4 47 -12t105 -8h12q141 0 156 30l15 25q16 26 27 33t25 7t41 -15q39 -23 39 -51q0 -16 -15 -42q-33 -56 -66 -78 q61 -73 61 -195t-59 -197z" unicode="¤" horiz-adv-x="677" glyph-name="currency"/>
<glyph d="M528 730q12 8 30 7q20 0 62 -29t42 -60q0 -20 -25 -58l-154 -229h15q45 0 55 -9q18 -16 18 -40t-5 -36t-16 -16q-17 -7 -49 -7h-74v-66h71q45 0 55 -9q18 -16 18 -40t-5 -36t-16 -16q-17 -6 -49 -6h-74q0 -61 -41 -74q-18 -5 -48 -5q-30 -1 -48 5t-26 18q-13 21 -13 56 h-75q-22 0 -34 2t-24 14t-11 38q0 26 13 38t25 14t36 1h70v66h-75q-22 0 -34 2q-12 3 -24 15t-11 34q0 22 6 34t19 16q19 7 49 7h14l-157 234q-23 35 -23 52q0 31 43 61t62 29q18 1 30 -7t18 -16t18 -25l153 -245l153 245q12 17 18 25t18 16z" unicode="¥" horiz-adv-x="677" glyph-name="yen"/>
<glyph d="M108 773q24 0 38 -6t21 -21q8 -19 8 -59v-304q0 -45 -29 -57q-14 -7 -38 -7q-24 1 -39 7t-21 18q-8 19 -8 39v305q0 67 30 79q14 6 38 6zM70 226q14 6 38 6t39 -6t20 -20q8 -20 8 -39v-305q0 -40 -7 -56t-22 -23q-15 -6 -39 -6q-25 0 -39 6t-20 21q-8 19 -8 59v304 q0 46 30 59z" unicode="¦" horiz-adv-x="215" glyph-name="brokenbar"/>
<glyph d="M328 211q37 17 37 64q0 27 -32 41q-34 13 -73 23q-22 -3 -38 -17t-16 -42q0 -52 122 -69zM490 140q45 -48 45 -133q0 -61 -25 -109t-64 -72q-80 -52 -167 -52q-90 0 -151 38q-50 32 -70 59l-8 11q-25 31 -25 51q0 31 41 69q24 23 50 23t67 -40l8 -8q13 -17 39 -31t46 -15 q89 0 89 73q0 35 -65 53q-30 9 -64 17t-69 22t-64 37q-29 21 -47 61t-18 93q0 77 49 133q-49 50 -49 136t62 149t171 63q57 0 105 -15t66 -29l23 -19q30 -29 30 -47t-24 -52q-33 -49 -67 -49q-29 0 -60 29q-26 25 -74 25q-24 -1 -44 -15t-20 -40t24 -44q24 -16 62 -22 q36 -6 78 -17t80 -29q36 -18 60 -60t25 -114q0 -72 -45 -130z" unicode="§" horiz-adv-x="560" glyph-name="section"/>
<glyph d="M399 595q-32 0 -51 6q-19 5 -27 21q-7 16 -9 28t-2 35t2 35t9 26t27 21q20 6 52 6t51 -6q19 -5 27 -21t10 -28t1 -34q1 -24 -1 -36t-10 -26q-8 -15 -28 -21t-51 -6zM129 595q-32 0 -51 6q-19 5 -27 21q-7 16 -9 28q-1 9 -2 24v12q0 24 2 34t10 26q8 15 26 21q20 6 52 6 t51 -6q19 -5 27 -21t10 -28t1 -34q1 -24 -1 -36t-10 -26q-8 -15 -28 -21t-51 -6z" unicode="¨" horiz-adv-x="489" glyph-name="dieresis"/>
<glyph d="M425 487q-28 24 -64 24q-36 -1 -63 -25t-27 -66t28 -66t62 -24q27 0 47 14t32 15q12 0 18 -3q4 -3 17 -18q19 -25 19 -43v-4q-1 -16 -20 -29q-51 -36 -107 -36q-81 0 -141 54t-60 148q0 71 56 129t135 58q73 0 118 -39q20 -17 20 -26q0 -34 -30 -58q-11 -9 -21 -9t-19 4z M535 228q64 55 64 188q-1 134 -55 190t-184 56t-185 -49q-63 -57 -63 -191t56 -188t186 -53q128 0 181 47zM598 672q88 -85 88 -252q0 -60 -16 -124t-56 -109q-40 -43 -98 -67q-60 -24 -161 -24q-166 0 -240 72q-90 88 -90 256q1 168 85 246t248 77q164 0 240 -75z" unicode="©" horiz-adv-x="711" glyph-name="copyright"/>
<glyph d="M169 482q19 -18 45 -19t44 19q17 20 17 43q-1 23 -17 43t-44 20t-46 -20t-18 -44t19 -42zM280 673q6 40 57 40q50 0 61 -19q7 -15 7 -44v-250q0 -24 -2 -34q-3 -10 -17 -20t-44 -9q-56 0 -61 38q-25 -38 -88 -38t-115 57q-52 58 -53 132q0 74 53 130t117 57q24 0 44 -9 q30 -12 41 -31z" unicode="ª" horiz-adv-x="445" glyph-name="ordfeminine"/>
<glyph d="M610 147l12 -12t16 -15q14 -16 14 -36t-31 -51t-53 -31t-53 31l-173 172q-28 30 -28 59t28 55l175 174q29 29 51 29t54 -31q31 -31 31 -54q0 -18 -10 -28q-10 -11 -19 -19t-13 -12l-116 -116zM311 147q3 -2 13 -12t14 -15q15 -16 15 -36t-31 -51t-53 -31t-53 31l-173 172 q-28 28 -28 57t28 57l175 174q30 29 52 29t52 -30t31 -55q1 -17 -9 -27l-20 -20q-10 -8 -12 -12l-116 -116z" unicode="«" horiz-adv-x="668" glyph-name="guillemotleft"/>
<glyph d="M473 436q25 -6 31 -21t7 -42v-182q0 -51 -29 -61q-15 -5 -39 -5q-25 -1 -39 5t-20 18q-8 20 -8 47v73h-294q-51 0 -62 37q-5 19 -5 49q-1 30 5 50q6 18 18 26t22 8q8 2 25 2h354q24 0 34 -4z" unicode="¬" horiz-adv-x="526" glyph-name="logicalnot"/>
<glyph d="M175 613q-63 -57 -63 -191t56 -188t185 -53q128 -1 187 55t59 184q-1 128 -55 186q-54 56 -184 56t-185 -49zM598 672q88 -85 88 -252q0 -60 -16 -124t-56 -109q-40 -43 -98 -67q-60 -24 -161 -24q-166 0 -240 72q-90 88 -90 256q1 168 85 246t248 77q164 0 240 -75z M399 450q13 10 13 29q0 17 -12 27t-31 10h-43v-75h45q16 -1 28 9zM477 383q24 -55 28 -65q5 -10 9 -19t4 -21t-18 -28t-44 -16t-36 25q-13 26 -35 80q-10 -1 -29 -1h-30v-51q0 -17 -2 -25t-14 -16t-36 -8t-35 8t-13 17q-2 8 -2 24v289q0 22 12 32t49 10h83q58 0 102 -38 t44 -97q0 -60 -37 -100z" unicode="®" horiz-adv-x="711" glyph-name="registered"/>
<glyph d="M203 523q22 0 43 16q21 17 21 49t-20 48t-43 16q-24 0 -44 -16t-20 -49q0 -32 20 -48t43 -16zM80 716q54 52 124 52t124 -51t54 -131t-56 -130t-122 -49q-68 1 -124 51t-55 128t55 130z" unicode="°" horiz-adv-x="407" glyph-name="degree"/>
<glyph d="M396 1h-288q-53 0 -64 29q-5 14 -5 38q-1 24 5 40q6 15 18 20q20 9 47 9h288q53 0 63 -29q6 -16 6 -40t-5 -39t-17 -21q-16 -7 -48 -7zM405 432q33 0 49 -8t21 -24t5 -44q0 -27 -5 -43t-17 -22q-16 -9 -34 -9h-20h-76v-30q0 -34 -8 -50t-24 -20q-16 -5 -44 -5 q-27 -1 -43 5t-23 18q-9 19 -9 53v29h-77q-43 0 -56 10q-19 16 -19 54q-1 38 5 54t18 22q19 10 53 10h76v36q0 34 8 50q9 16 25 20q16 5 43 5q27 1 43 -5t22 -18q10 -19 10 -53v-35h77z" unicode="±" horiz-adv-x="505" glyph-name="plusminus"/>
<glyph d="M291 362h90q46 0 55 -32q4 -16 4 -42t-4 -42t-15 -21q-15 -9 -40 -9h-273q-30 0 -56 18t-26 58q0 42 26 73t62 52t72 41t62 47t26 59q0 14 -16 28t-36 14q-21 0 -34 -14q-16 -18 -16 -46t-14 -47q-14 -18 -65 -18q-49 0 -59 25q-9 19 -9 46q-1 79 55 139t142 60t142 -58 q57 -58 57 -142q0 -39 -16 -73t-41 -58q-42 -41 -73 -58z" unicode="²" horiz-adv-x="455" glyph-name="twosuperior"/>
<glyph d="M376 494q56 -42 56 -110t-55 -122t-152 -54q-39 0 -73 11t-53 27q-42 35 -52 58l-5 11q-17 34 -17 65q0 51 79 51q48 0 60 -29q13 -45 38 -56q11 -6 30 -6t33 10q21 16 21 36v4q0 13 -2 19t-16 12t-34 6t-28 1t-18 6q-18 9 -18 53q0 20 10 31q10 10 20 12t25 2h4 q46 0 46 45q-1 17 -15 28t-32 11t-28 -6t-14 -12t-8 -16l-6 -15t-6 -10q-10 -14 -38 -14t-59 25q-22 20 -22 52q1 32 51 81q50 50 133 50q83 1 137 -49t53 -113q0 -63 -45 -95z" unicode="³" horiz-adv-x="457" glyph-name="threesuperior"/>
<glyph d="M238 576q-14 -7 -30 -7q-30 0 -49 59q-8 24 -8 41t7 26q9 13 36 21l165 51q26 7 30 7q30 0 48 -59q8 -25 8 -41t-7 -25q-9 -13 -36 -21z" unicode="´" horiz-adv-x="605" glyph-name="acute"/>
<glyph d="M389 69q-37 -62 -99 -62q-34 -1 -52 11t-24 14v-166q0 -22 -2 -34t-9 -26q-8 -14 -27 -20t-50 -6q-32 0 -50 6t-26 20t-8 26q-2 12 -2 35v574q0 23 2 34t8 25q8 14 27 21q19 6 50 6t50 -6q19 -7 27 -21t8 -26q2 -12 2 -34v-174q0 -42 23 -64t63 -22t63 24q24 24 24 63 v174q-1 23 1 35t10 26t26 20q19 6 50 6t50 -6q18 -6 26 -21t10 -27t1 -34v-347q1 -23 -1 -35t-10 -25q-13 -26 -77 -26q-59 0 -74 23q-10 16 -10 39z" unicode="µ" horiz-adv-x="601" glyph-name="mu"/>
<glyph d="M208 613h280q49 0 60 -27q8 -19 8 -60v-672q0 -68 -29 -80q-15 -6 -39 -6t-40 6q-15 6 -21 21q-8 20 -8 61v656h-74v-658q0 -68 -29 -80q-16 -6 -40 -6t-39 6t-21 21q-8 20 -8 61v408q-108 0 -143 42t-35 132q0 50 5 78t23 52t54 35q36 10 96 10z" unicode="¶" horiz-adv-x="614" glyph-name="paragraph"/>
<glyph d="M195 381q17 -17 17 -70v-4q0 -23 -2 -35t-10 -28q-16 -29 -76 -29t-80 19t-19 72v4q-1 23 1 35t10 27q16 30 76 30t83 -21z" unicode="·" horiz-adv-x="237" glyph-name="periodcentered"/>
<glyph d="M260 30q40 0 76 -30t36 -82t-39 -82q-31 -28 -69 -28t-62 16t-26 31v4q0 15 11 27q21 24 33 24t27 -11q4 -1 7 -2t9 -1q5 0 13 6t8 17q0 12 -8 18t-16 6t-14 -5q-16 -10 -29 -10t-31 25q-10 17 -9 28q3 27 33 38t50 11z" unicode="¸" horiz-adv-x="559" glyph-name="cedilla"/>
<glyph d="M208 745q73 0 73 -61v-410q0 -45 -33 -54q-16 -4 -42 -4t-42 5t-21 16q-9 17 -9 39v233q-22 -16 -44 -16q-22 1 -48 25t-27 52q0 22 15 36l11 12q111 100 115 104q23 23 52 23z" unicode="¹" horiz-adv-x="321" glyph-name="onesuperior"/>
<glyph d="M174 464q22 -18 46 -18t46 18q23 18 23 52q0 36 -22 52t-47 16t-47 -18t-22 -51q1 -33 23 -51zM84 654q60 55 136 55t136 -55q58 -55 58 -141q0 -87 -60 -139t-134 -52t-134 54q-61 54 -61 138q-1 84 59 140z" unicode="º" horiz-adv-x="439" glyph-name="ordmasculine"/>
<glyph d="M58 147l116 115l-117 116q-3 3 -9 8q-6 4 -10 8t-8 10q-5 6 -8 10q-7 10 -7 28q-1 18 31 48q32 32 55 32t52 -31l173 -172q28 -28 28 -57t-28 -57l-177 -176q-26 -26 -49 -26q-24 1 -54 31t-30 53q0 17 10 27t20 21zM358 147l115 115l-117 116l-10 10t-12 10l-9 11 q-10 11 -10 31t31 51q32 31 54 31t53 -31l172 -172q29 -29 29 -57t-29 -57l-172 -172q-31 -31 -53 -31t-53 31t-31 54q0 17 10 27t20 21z" unicode="»" horiz-adv-x="669" glyph-name="guillemotright"/>
<glyph d="M145 396v186q-19 -13 -36 -13q-17 -1 -38 19t-21 41t21 39q88 79 91 82q18 18 41 18q57 0 57 -48v-324q0 -36 -25 -42q-13 -4 -37 -4t-36 8q-13 8 -15 16t-2 22zM511 761q13 23 25 23t37 -13q24 -13 24 -28q0 -7 -7 -19l-387 -731l-2 -3q-11 -20 -23 -20t-36 12t-24 25 q0 12 7 24zM636 416q12 4 32 4t34 -4q12 -4 17 -13q7 -13 7 -36v-319q0 -35 -24 -42q-14 -3 -34 -3t-32 4t-18 11q-7 11 -7 31v68h-148q-21 1 -34 13t-13 34t5 43l42 169q10 45 40 45q32 -1 54 -13t22 -32l-9 -48l-26 -101h67v142q0 24 6 34q7 9 19 13z" unicode="¼" horiz-adv-x="786" glyph-name="onequarter"/>
<glyph d="M145 396v186q-19 -13 -36 -13q-17 -1 -38 19t-21 41t21 39q88 79 91 82q18 18 41 18q57 0 57 -48v-324q0 -36 -25 -42q-13 -4 -37 -4t-36 8q-13 8 -15 16t-2 22zM511 761q13 23 25 23t37 -13q24 -13 24 -28q0 -7 -7 -19l-387 -731l-2 -3q-11 -20 -23 -20t-36 12t-24 25 q0 12 7 24zM626 116h71q35 0 43 -24q4 -13 4 -37t-8 -37t-15 -15q-8 -2 -24 -2h-216q-23 -1 -44 13t-21 47t20 57t49 42q29 17 58 32q69 37 69 84q0 13 -12 23t-28 10t-27 -11q-13 -14 -13 -32t-3 -28t-17 -20q-14 -8 -42 -8q-26 0 -38 10t-14 20t-2 27q0 61 44 109t111 48 t112 -46t45 -112q0 -62 -45 -105q-32 -30 -57 -45z" unicode="½" horiz-adv-x="804" glyph-name="onehalf"/>
<glyph d="M567 761q13 23 25 23t37 -13q24 -13 24 -28q0 -7 -7 -19l-387 -731l-2 -3q-11 -20 -23 -20t-36 12t-24 25q0 12 7 24zM691 416q13 4 33 4t34 -4q12 -4 17 -13q7 -13 7 -36v-319q0 -35 -24 -42q-14 -3 -34 -3t-32 4t-18 11q-7 11 -7 31l-1 68h-147q-21 1 -34 13t-13 36 t5 41l42 169q10 45 40 45q32 -1 54 -13t22 -32l-9 -48l-26 -101h66v141q0 25 6 35q6 9 19 13zM328 565q44 -32 44 -86t-44 -97t-120 -43q-77 0 -126 55q-10 12 -21 35t-11 46q0 41 62 41q41 0 50 -29q0 -5 2 -10t6 -11t10 -12q13 -11 31 -11q18 1 32 11t14 23t-1 17t-5 9 q-8 10 -31 10t-29 1t-13 5t-10 14t-3 26q-1 17 7 25t16 10t20 1h4q36 0 36 36q0 14 -12 22t-25 8q-15 -1 -23 -5t-10 -9q-9 -17 -9 -21q-13 -22 -37 -22t-44 18q-21 18 -21 42t40 64q39 40 105 40t108 -39t43 -89q0 -50 -35 -75z" unicode="¾" horiz-adv-x="842" glyph-name="threequarters"/>
<glyph d="M314 350q-20 -7 -64 -7t-64 19t-19 60v16q-1 24 1 36t10 27q16 29 76 29t80 -20t20 -75q0 -39 -10 -59t-30 -26zM430 29q66 -26 66 -59q0 -20 -5 -30t-6 -14t-5 -14t-22 -36t-40 -46t-63 -36t-91 -16q-106 0 -172 68t-67 158q-1 44 15 80t38 57q44 42 82 55l16 6 q0 18 2 26t8 20q8 10 26 14t46 5q29 -1 46 -5t24 -16q10 -17 10 -52v-8q0 -43 -24 -68q-24 -26 -54 -34t-54 -26t-24 -52q0 -32 18 -50t56 -18q36 0 54 12t22 24l3 11q8 25 20 39q11 14 31 14t44 -9z" unicode="¿" horiz-adv-x="511" glyph-name="questiondown"/>
<glyph d="M382 441l-66 -137h133zM463 681l270 -558q17 -34 17 -51q0 -36 -58 -65q-34 -17 -54 -17t-32 9t-18 19t-15 30l-52 108h-277l-52 -108q-10 -20 -16 -29t-18 -19t-32 -9q-20 0 -53 17q-58 28 -58 64q0 17 17 51l270 559q12 23 34 37t47 14q54 0 80 -52zM446 756 q-9 0 -30 7l-165 52q-27 8 -35 19q-8 12 -8 28t8 40q19 59 49 59q4 0 30 -7l165 -51q14 -5 22 -9q21 -10 21 -32t-8 -47q-19 -59 -49 -59z" unicode="À" horiz-adv-x="765" glyph-name="Agrave"/>
<glyph d="M382 441l-66 -137h133zM463 681l270 -558q17 -34 17 -51q0 -36 -58 -65q-34 -17 -54 -17t-32 9t-18 19t-15 30l-52 108h-277l-52 -108q-10 -20 -16 -29t-18 -19t-32 -9q-20 0 -53 17q-58 28 -58 64q0 17 17 51l270 559q12 23 34 37t47 14q54 0 80 -52zM353 776l-30 -7 q-30 0 -49 59q-8 24 -8 41t6 26q10 13 37 21l165 51q26 7 30 7q30 0 48 -59q8 -25 8 -41t-6 -25q-10 -13 -37 -21z" unicode="Á" horiz-adv-x="765" glyph-name="Aacute"/>
<glyph d="M382 441l-66 -137h133zM463 681l270 -558q17 -34 17 -51q0 -36 -58 -65q-34 -17 -54 -17t-32 9t-18 19t-15 30l-52 108h-277l-52 -108q-10 -20 -16 -29t-18 -19t-32 -9q-20 0 -53 17q-58 28 -58 64q0 17 17 51l270 559q12 23 34 37t47 14q54 0 80 -52zM384 974l23 -5 q93 -30 135 -44t41 -49q0 -19 -11 -40q-26 -53 -60 -53q-9 0 -32 7l-96 42l-93 -40h-1q-20 -7 -33 -7q-38 0 -62 51q-12 26 -12 42q0 32 38 45l139 46z" unicode="Â" horiz-adv-x="765" glyph-name="Acircumflex"/>
<glyph d="M382 441l-66 -137h133zM463 681l270 -558q17 -34 17 -51q0 -36 -58 -65q-34 -17 -54 -17t-32 9t-18 19t-15 30l-52 108h-277l-52 -108q-10 -20 -16 -29t-18 -19t-32 -9q-20 0 -53 17q-58 28 -58 64q0 17 17 51l270 559q12 23 34 37t47 14q54 0 80 -52zM546 958 q36 -25 36 -48q0 -14 -8 -27t-11 -19t-14 -19q-11 -14 -25 -25q-38 -28 -77 -28t-61 13t-38 26q-14 13 -23 13q-14 0 -26 -12q-23 -40 -43 -40t-46 24q-28 24 -28 40t8 28t11 18t15 20t25 24q37 27 77 27q40 -1 62 -13t36 -24t23 -13q16 0 26 12q21 38 45 38q15 0 36 -15z " unicode="Ã" horiz-adv-x="765" glyph-name="Atilde"/>
<glyph d="M382 441l-66 -137h133zM463 681l270 -558q17 -34 17 -51q0 -36 -58 -65q-34 -17 -54 -17t-32 9t-18 19t-15 30l-52 108h-277l-52 -108q-10 -20 -16 -29t-18 -19t-32 -9q-20 0 -53 17q-58 28 -58 64q0 17 17 51l270 559q12 23 34 37t47 14q54 0 80 -52zM520 795 q-32 0 -51 6q-19 5 -27 21t-10 28t-1 35q-1 23 1 35t10 26t28 21q20 6 51 6q32 0 51 -6q19 -5 27 -21q7 -16 9 -28t2 -34q0 -24 -2 -36t-9 -26q-7 -15 -27 -21t-52 -6zM250 795q-32 0 -51 6q-19 5 -27 21t-10 28q-1 9 -1 24q1 6 1 12q0 24 2 34t8 26q8 15 28 21t51 6 q32 0 51 -6q19 -5 27 -21q7 -16 9 -28t2 -34q0 -24 -2 -36t-9 -26q-7 -15 -27 -21t-52 -6z" unicode="Ä" horiz-adv-x="765" glyph-name="Adieresis"/>
<glyph d="M382 441l-66 -137h133zM382 729q21 -1 41 15t20 46q1 30 -19 46q-20 15 -42 15q-22 1 -42 -15t-19 -46q0 -30 20 -46q20 -15 41 -15zM292 882q40 36 90 37q50 0 90 -36q39 -37 39 -97t-51 -99l273 -564q17 -34 17 -51q0 -36 -58 -65q-34 -17 -54 -17t-32 9t-18 19t-15 30 l-52 108h-277l-52 -108q-10 -20 -16 -29t-18 -19t-32 -9q-20 0 -53 17q-58 28 -58 64q1 18 9 34t281 581q-52 39 -52 99q-1 60 39 96z" unicode="Å" horiz-adv-x="765" glyph-name="Aring"/>
<glyph d="M403 297h149v164q-4 -5 -149 -164zM730 178h311q37 0 54 -10q28 -17 28 -79q0 -70 -37 -83q-17 -5 -52 -5h-394q-36 0 -62 27t-26 63v58h-283l-110 -121q-33 -37 -64 -37q-31 1 -63 39t-32 62t33 60q64 69 504 556q25 26 64 26h434q23 0 35 -2t26 -9q27 -14 27 -78 q0 -62 -25 -77q-21 -11 -58 -11h-310v-101h195q40 0 58 -10t24 -29t6 -50t-6 -50q-7 -19 -21 -27t-26 -10t-36 -1h-194v-101z" unicode="Æ" horiz-adv-x="1148" glyph-name="AE"/>
<glyph d="M309 -27q3 18 18 27q-110 24 -201 110q-46 44 -74 112t-27 148q0 80 26 143q27 64 67 105t92 70q97 54 198 54q47 0 95 -15t73 -29l25 -15q17 -12 27 -19q26 -20 26 -46t-21 -56q-38 -54 -69 -54q-17 0 -52 22q-42 34 -112 34q-65 0 -128 -45q-30 -22 -50 -62 q-20 -41 -20 -91t20 -90t52 -64q62 -44 126 -44q30 0 58 8t40 16l12 9l7 4q32 21 48 21q30 0 66 -56q22 -35 22 -53t-9 -31q-10 -14 -18 -20t-26 -17q-56 -40 -140 -54q38 -31 38 -81t-34 -78t-74 -29q-26 0 -40 7q-38 19 -40 38l-1 5q0 12 15 30q16 18 26 18q10 -1 17 -5 t11 -5q4 -4 12 -4t16 6t7 17q1 11 -7 17t-16 6t-18 -7q-8 -7 -24 -7q-16 1 -28 21t-11 29z" unicode="Ç" horiz-adv-x="679" glyph-name="Ccedilla"/>
<glyph d="M425 756l-30 7l-165 52q-27 8 -35 19q-8 12 -8 28t8 40q19 59 49 59q4 0 30 -7l165 -51q14 -5 21 -9q22 -10 22 -32t-8 -47q-19 -59 -49 -59zM217 177h308q23 1 35 -1t26 -10q27 -14 27 -78q0 -70 -37 -82q-17 -6 -52 -6h-396q-70 0 -82 38q-6 16 -6 51v556q0 51 19 69 t72 19h394q23 1 35 -1t26 -10q27 -14 27 -78q0 -70 -37 -82q-17 -6 -52 -6h-307v-101h198q23 1 35 -1t26 -10q27 -14 27 -78q0 -70 -38 -82q-17 -6 -52 -6h-196v-101z" unicode="È" horiz-adv-x="638" glyph-name="Egrave"/>
<glyph d="M288 776q-14 -7 -30 -7q-30 0 -49 59q-8 24 -8 41t7 26q9 13 36 21l165 51q26 7 30 7q30 0 48 -59q8 -25 8 -41t-7 -25q-9 -13 -36 -21zM217 177h308q23 1 35 -1t26 -10q27 -14 27 -78q0 -70 -37 -82q-17 -6 -52 -6h-396q-70 0 -82 38q-6 16 -6 51v556q0 51 19 69t72 19 h394q23 1 35 -1t26 -10q27 -14 27 -78q0 -70 -37 -82q-17 -6 -52 -6h-307v-101h198q23 1 35 -1t26 -10q27 -14 27 -78q0 -70 -38 -82q-17 -6 -52 -6h-196v-101z" unicode="É" horiz-adv-x="638" glyph-name="Eacute"/>
<glyph d="M324 974l23 -5q93 -30 135 -44t41 -49q0 -19 -11 -40q-26 -53 -60 -53q-9 0 -32 7l-96 42l-93 -40h-1q-20 -7 -33 -7q-38 0 -62 51q-12 26 -12 42q0 32 38 45l139 46zM217 177h308q23 1 35 -1t26 -10q27 -14 27 -78q0 -70 -37 -82q-17 -6 -52 -6h-396q-70 0 -82 38 q-6 16 -6 51v556q0 51 19 69t72 19h394q23 1 35 -1t26 -10q27 -14 27 -78q0 -70 -37 -82q-17 -6 -52 -6h-307v-101h198q23 1 35 -1t26 -10q27 -14 27 -78q0 -70 -38 -82q-17 -6 -52 -6h-196v-101z" unicode="Ê" horiz-adv-x="638" glyph-name="Ecircumflex"/>
<glyph d="M464 795q-32 0 -51 6q-19 5 -27 21t-10 28t-1 35q-1 23 1 35t10 26t28 21q20 6 51 6q32 0 51 -6q19 -5 27 -21q7 -16 9 -28t2 -34q0 -24 -2 -36t-9 -26q-7 -15 -27 -21t-52 -6zM194 795q-32 0 -51 6q-19 5 -27 21t-10 28q-1 9 -1 24q1 6 1 12q0 24 2 34t8 26q8 15 28 21 t51 6q32 0 51 -6q19 -5 27 -21q7 -16 9 -28t2 -34q0 -24 -2 -36t-9 -26q-7 -15 -27 -21t-52 -6zM217 177h308q23 1 35 -1t26 -10q27 -14 27 -78q0 -70 -37 -82q-17 -6 -52 -6h-396q-70 0 -82 38q-6 16 -6 51v556q0 51 19 69t72 19h394q23 1 35 -1t26 -10q27 -14 27 -78 q0 -70 -37 -82q-17 -6 -52 -6h-307v-101h198q23 1 35 -1t26 -10q27 -14 27 -78q0 -70 -38 -82q-17 -6 -52 -6h-196v-101z" unicode="Ë" horiz-adv-x="638" glyph-name="Edieresis"/>
<glyph d="M189 756l-30 7l-165 52q-27 8 -35 19q-8 12 -8 28t8 40q19 59 49 59q4 0 30 -7l165 -51q14 -5 21 -9q22 -10 22 -32t-8 -47q-19 -59 -49 -59zM45 645q-1 23 1 35t10 26q14 27 78 27q70 0 82 -37q6 -17 6 -52v-556q0 -24 -2 -35t-9 -26q-14 -27 -78 -27q-70 0 -83 38 q-5 16 -5 51v556z" unicode="Ì" horiz-adv-x="267" glyph-name="Igrave"/>
<glyph d="M110 776q-14 -7 -30 -7q-30 0 -49 59q-8 24 -8 41t7 26q9 13 36 21l165 51q26 7 30 7q30 0 48 -59q8 -25 8 -41t-7 -25q-9 -13 -36 -21zM46 645q0 23 2 35t9 26q14 27 78 27q70 0 83 -37q5 -17 5 -52v-556q1 -24 -1 -35t-10 -26q-14 -27 -78 -27q-70 0 -82 38 q-6 16 -6 51v556z" unicode="Í" horiz-adv-x="269" glyph-name="Iacute"/>
<glyph d="M136 974l23 -5q93 -30 135 -44t41 -49q0 -19 -11 -40q-26 -53 -60 -53q-9 0 -32 7l-96 42l-93 -40h-1q-20 -7 -33 -7q-38 0 -62 51q-12 26 -12 42q0 32 38 45l139 46zM46 645q0 23 2 35t9 26q14 27 78 27q70 0 83 -37q5 -17 5 -52v-556q1 -24 -1 -35t-10 -26 q-14 -27 -78 -27q-70 0 -82 38q-6 16 -6 51v556z" unicode="Î" horiz-adv-x="270" glyph-name="Icircumflex"/>
<glyph d="M272 795q-32 0 -51 6q-19 5 -27 21t-10 28t-1 35q-1 23 1 35t10 26t28 21q20 6 51 6q32 0 51 -6q19 -5 27 -21q7 -16 9 -28t2 -34q0 -24 -2 -36t-9 -26q-7 -15 -27 -21t-52 -6zM2 795q-32 0 -51 6q-19 5 -27 21t-10 28q-1 9 -1 24q1 6 1 12q0 24 2 34t8 26q8 15 28 21 t51 6q32 0 51 -6q19 -5 27 -21q7 -16 9 -28t2 -34q0 -24 -2 -36t-9 -26q-7 -15 -27 -21t-52 -6zM48 645q0 23 2 35t9 26q14 27 78 27q70 0 82 -37q6 -17 6 -52v-556q1 -24 -1 -35t-10 -26q-14 -27 -78 -27q-70 0 -83 38q-5 16 -5 51v556z" unicode="Ï" horiz-adv-x="268" glyph-name="Idieresis"/>
<glyph d="M312 301h-24v-123h97q72 0 130 54t58 134q-1 82 -57 136t-132 54h-96v-120h25q46 0 56 -29q5 -15 5 -39t-4 -38t-16 -21q-14 -8 -42 -8zM200 734l185 -1q145 -1 255 -105t110 -256t-108 -262q-108 -109 -260 -109h-183q-61 0 -76 25q-12 21 -12 64v211h-25q-46 0 -56 29 q-5 15 -5 39q0 25 5 39t16 20q17 8 41 8h24v210q-1 24 1 35t10 26q14 27 78 27z" unicode="Ð" glyph-name="Eth"/>
<glyph d="M524 958q36 -25 36 -48q0 -14 -8 -27t-11 -19t-14 -19q-11 -14 -25 -25q-38 -28 -77 -28t-61 13t-38 26q-14 13 -23 13q-14 0 -26 -12q-23 -40 -43 -40t-46 24q-28 24 -28 40t8 28t11 18t15 20t25 24q37 27 77 27q40 -1 62 -13t36 -24t23 -13q16 0 26 12q21 38 45 38 q15 0 36 -15zM542 726q20 6 48 6t46 -5t26 -12t12 -21q6 -16 6 -51v-555q0 -24 -2 -35t-9 -26q-14 -27 -78 -27q-39 0 -54 6t-25 19q-225 300 -296 392v-329q0 -24 -2 -35t-9 -26q-14 -27 -78 -27q-62 0 -76 27q-7 15 -9 27t-2 35v558q0 37 10 55t28 24q19 6 49 6 q29 0 47 -6t25 -12q4 -3 23 -26q211 -287 282 -379v338q0 37 10 55t28 24z" unicode="Ñ" horiz-adv-x="720" glyph-name="Ntilde"/>
<glyph d="M456 756q-9 0 -30 7l-165 52q-27 8 -35 19q-8 12 -8 28t8 40q19 59 49 59q4 0 30 -7l165 -51q14 -5 22 -9q21 -10 21 -32t-8 -47q-19 -59 -49 -59zM260 220q58 -56 128 -55q71 0 128 54t57 145q1 91 -57 146t-129 55q-71 1 -128 -55t-57 -145t58 -145zM384 742 q148 0 257 -107t109 -265t-104 -270t-256 -112t-258 110t-107 262q0 84 30 156t80 121t115 77t134 28z" unicode="Ò" glyph-name="Ograve"/>
<glyph d="M349 776l-30 -7q-30 0 -49 59q-8 24 -8 41t6 26q10 13 37 21l165 51q26 7 30 7q30 0 48 -59q8 -25 8 -41t-6 -25q-10 -13 -37 -21zM260 220q58 -56 128 -55q71 0 128 54t57 145q1 91 -57 146t-129 55q-71 1 -128 -55t-57 -145t58 -145zM384 742q148 0 257 -107t109 -265 t-104 -270t-256 -112t-258 110t-107 262q0 84 30 156t80 121t115 77t134 28z" unicode="Ó" glyph-name="Oacute"/>
<glyph d="M390 974l23 -5q93 -30 135 -44t41 -49q0 -19 -11 -40q-26 -53 -60 -53q-9 0 -32 7l-96 42l-93 -40h-1q-20 -7 -33 -7q-38 0 -62 51q-12 26 -12 42q0 32 38 45l139 46zM260 220q58 -56 128 -55q71 0 128 54t57 145q1 91 -57 146t-129 55q-71 1 -128 -55t-57 -145t58 -145z M384 742q148 0 257 -107t109 -265t-104 -270t-256 -112t-258 110t-107 262q0 84 30 156t80 121t115 77t134 28z" unicode="Ô" glyph-name="Ocircumflex"/>
<glyph d="M573 958q36 -25 36 -48q0 -14 -8 -27t-11 -19t-14 -19q-11 -14 -25 -25q-38 -28 -77 -28q-40 0 -62 13t-36 26t-24 13q-14 0 -26 -12q-22 -40 -42 -40t-48 24t-27 40q0 16 8 28t11 18q2 6 14 20t26 24q37 27 77 27q40 -1 62 -13t36 -24t23 -13q18 0 26 12q21 38 45 38 q15 0 36 -15zM260 220q58 -56 128 -55q71 0 128 54t57 145q1 91 -57 146t-129 55q-71 1 -128 -55t-57 -145t58 -145zM384 742q148 0 257 -107t109 -265t-104 -270t-256 -112t-258 110t-107 262q0 84 30 156t80 121t115 77t134 28z" unicode="Õ" glyph-name="Otilde"/>
<glyph d="M518 795q-32 0 -51 6q-19 5 -27 21t-10 28t-1 35q-1 23 1 35t10 26t28 21q20 6 51 6q32 0 51 -6q19 -5 27 -21q7 -16 9 -28t2 -34q0 -24 -2 -36t-9 -26q-7 -15 -27 -21t-52 -6zM248 795q-32 0 -51 6q-19 5 -27 21t-10 28q-1 9 -1 24q1 6 1 12q0 24 2 34t8 26q8 15 28 21 t51 6q32 0 51 -6q19 -5 27 -21q7 -16 9 -28t2 -34q0 -24 -2 -36t-9 -26q-7 -15 -27 -21t-52 -6zM260 220q58 -56 128 -55q71 0 128 54t57 145q1 91 -57 146t-129 55q-71 1 -128 -55t-57 -145t58 -145zM384 742q148 0 257 -107t109 -265t-104 -270t-256 -112t-258 110 t-107 262q0 84 30 156t80 121t115 77t134 28z" unicode="Ö" glyph-name="Odieresis"/>
<glyph d="M372 265l91 -91q33 -33 33 -57q0 -23 -32 -55t-56 -32t-56 32l-92 92l-91 -92q-33 -32 -57 -32t-56 32t-31 55q0 24 33 57l91 91l-92 92q-32 33 -32 55q1 22 33 54t56 33q24 0 56 -32l90 -91l91 91q32 32 56 32q25 -1 57 -33t32 -54t-34 -57z" unicode="×" horiz-adv-x="521" glyph-name="multiply"/>
<glyph d="M573 365q0 64 -32 112l-150 -312q71 2 127 56t55 144zM259 510q-57 -56 -57 -138t41 -134l157 326q-4 1 -12 1q-72 1 -129 -55zM310 -2q-18 -54 -54 -54q-20 0 -53 15t-45 27t-11 25q0 14 12 50l4 8q-65 53 -101 129t-37 160q0 84 30 158q30 72 80 121t115 77 q64 28 124 28t105 -13q16 41 36 49q7 4 23 4t51 -16q54 -26 54 -57q0 -19 -18 -59q125 -112 125 -286q0 -152 -104 -264t-253 -112q-38 0 -83 10z" unicode="Ø" glyph-name="Oslash"/>
<glyph d="M397 756l-30 7l-165 52q-27 8 -35 19q-8 12 -8 28t8 40q19 59 49 59q4 0 30 -7l165 -51q14 -5 21 -9q22 -10 22 -32t-8 -47q-19 -59 -49 -59zM548 728q20 6 48 6t45 -5t26 -12t13 -21q6 -17 6 -52v-302q0 -132 -82 -240q-40 -50 -103 -82t-139 -32t-140 32 q-62 32 -101 84q-81 106 -81 240v301q0 23 2 35t9 27q8 15 27 21t51 6t51 -6t26 -21q12 -23 12 -63v-300q0 -61 30 -116q15 -28 45 -45t71 -17q73 0 109 54t36 125v306q0 39 10 55t29 22z" unicode="Ù" horiz-adv-x="726" glyph-name="Ugrave"/>
<glyph d="M349 776l-30 -7q-30 0 -49 59q-8 24 -8 41t6 26q10 13 37 21l165 51q26 7 30 7q30 0 48 -59q8 -25 8 -41t-6 -25q-10 -13 -37 -21zM548 728q20 6 48 6t45 -5t26 -12t13 -21q6 -17 6 -52v-302q0 -132 -82 -240q-40 -50 -103 -82t-139 -32t-140 32q-62 32 -101 84 q-81 106 -81 240v301q0 23 2 35t9 27q8 15 27 21t51 6t51 -6t26 -21q12 -23 12 -63v-300q0 -61 30 -116q15 -28 45 -45t71 -17q73 0 109 54t36 125v306q0 39 10 55t29 22z" unicode="Ú" horiz-adv-x="726" glyph-name="Uacute"/>
<glyph d="M377 974l23 -5q92 -30 134 -44t42 -49q0 -19 -11 -40q-27 -53 -60 -53q-9 0 -32 7l-96 42l-93 -40q-14 -7 -34 -7q-38 0 -62 51q-12 26 -12 42q0 32 38 45l139 46zM548 728q20 6 48 6t45 -5t26 -12t13 -21q6 -17 6 -52v-302q0 -132 -82 -240q-40 -50 -103 -82t-139 -32 t-140 32q-62 32 -101 84q-81 106 -81 240v301q0 23 2 35t9 27q8 15 27 21t51 6t51 -6t26 -21q12 -23 12 -63v-300q0 -61 30 -116q15 -28 45 -45t71 -17q73 0 109 54t36 125v306q0 39 10 55t29 22z" unicode="Û" horiz-adv-x="726" glyph-name="Ucircumflex"/>
<glyph d="M228 795q-32 0 -51 6q-19 5 -27 21t-10 28q-1 9 -1 24q1 6 1 12q0 24 2 34t8 26q8 15 28 21t51 6q32 0 51 -6q19 -5 27 -21q7 -16 9 -28t2 -34q0 -24 -2 -36t-9 -26q-7 -15 -27 -21t-52 -6zM498 795q-32 0 -51 6q-19 5 -27 21t-10 28t-1 35q-1 23 1 35t10 26t28 21 q20 6 51 6q32 0 51 -6q19 -5 27 -21q7 -16 9 -28t2 -34q0 -24 -2 -36t-9 -26q-7 -15 -27 -21t-52 -6zM548 728q20 6 48 6t45 -5t26 -12t13 -21q6 -17 6 -52v-302q0 -132 -82 -240q-40 -50 -103 -82t-139 -32t-140 32q-62 32 -101 84q-81 106 -81 240v301q0 23 2 35t9 27 q8 15 27 21t51 6t51 -6t26 -21q12 -23 12 -63v-300q0 -61 30 -116q15 -28 45 -45t71 -17q73 0 109 54t36 125v306q0 39 10 55t29 22z" unicode="Ü" horiz-adv-x="726" glyph-name="Udieresis"/>
<glyph d="M302 776q-14 -7 -30 -7q-30 0 -49 59q-8 24 -8 41t7 26q9 13 36 21l165 51q26 7 30 7q30 0 48 -59q8 -25 8 -41t-7 -25q-9 -13 -36 -21zM622 719q49 -34 49 -66q0 -19 -23 -53l-216 -323v-191q0 -22 -2 -34t-9 -27q-8 -15 -27 -21t-51 -6t-51 6t-27 22q-7 16 -9 26 q-2 12 -2 36v189l-216 323q-23 34 -23 53q0 31 44 61t63 30t30 -8q17 -11 36 -41l155 -248l155 248q19 29 33 39q15 10 33 10t58 -25z" unicode="Ý" horiz-adv-x="686" glyph-name="Yacute"/>
<glyph d="M402 300q29 22 29 66t-29 66t-60 23h-125v-177h126q30 0 59 22zM40 645q0 23 2 35t9 26q14 27 78 27q70 0 83 -37q5 -17 5 -52v-12h126q88 0 171 -64q41 -31 67 -84t26 -118q0 -66 -26 -118t-67 -83q-83 -64 -172 -64h-125v-12q1 -23 -1 -35t-10 -26q-14 -27 -78 -27 q-70 0 -82 37q-6 17 -6 52v555z" unicode="Þ" horiz-adv-x="634" glyph-name="Thorn"/>
<glyph d="M455 460q-21 -22 -21 -38t18 -32q18 -17 44 -33t50 -37q26 -21 44 -58t18 -86q0 -179 -183 -179q-37 0 -81 7t-63 20q-19 14 -19 40t7 54q15 58 47 58q13 0 47 -14t47 -13q34 0 34 55q0 14 -26 34t-57 38t-57 54t-26 76t12 67q12 28 24 42q37 38 37 65q0 25 -48 25 q-90 0 -90 -78v-474q1 -23 -1 -34t-10 -25t-26 -20q-19 -6 -50 -6q-32 0 -50 6t-26 20t-8 26q-2 12 -2 35v463q0 85 20 130q20 44 84 74t157 30q218 0 218 -138q1 -54 -21 -93t-43 -61z" unicode="ß" horiz-adv-x="633" glyph-name="germandbls"/>
<glyph d="M226 204q26 -26 63 -27q37 0 61 27q24 28 25 60t-23 60t-64 28t-64 -28t-24 -61t26 -59zM402 569q-14 0 -30 7l-165 52q-27 8 -35 19t-8 27t8 41q19 59 49 59q4 0 30 -7l165 -51q14 -5 22 -8q21 -12 21 -34t-8 -46q-19 -59 -49 -59zM382 471q6 56 79 56q39 0 58 -6 t27 -21q8 -14 8 -26q2 -12 2 -35v-350q0 -23 -2 -35t-8 -26q-14 -26 -68 -26t-74 14q-18 14 -21 39q-37 -53 -123 -53t-161 79q-74 79 -74 183q1 104 75 184q74 78 163 78q34 0 62 -12t39 -22t18 -21z" unicode="à" horiz-adv-x="596" glyph-name="agrave"/>
<glyph d="M226 204q26 -26 63 -27q37 0 61 27q24 28 25 60t-23 60t-64 28t-64 -28t-24 -61t26 -59zM265 576l-30 -7q-30 0 -49 59q-8 24 -8 41t6 26q10 13 37 21l165 51q26 7 30 7q30 0 48 -59q8 -25 8 -41t-6 -25q-10 -13 -37 -21zM382 471q6 56 79 56q39 0 58 -6t27 -21 q8 -14 8 -26q2 -12 2 -35v-350q0 -23 -2 -35t-8 -26q-14 -26 -68 -26t-74 14q-18 14 -21 39q-37 -53 -123 -53t-161 79q-74 79 -74 183q1 104 75 184q74 78 163 78q34 0 62 -12t39 -22t18 -21z" unicode="á" horiz-adv-x="596" glyph-name="aacute"/>
<glyph d="M327 774l23 -5q92 -30 134 -44t42 -49q0 -19 -11 -40q-27 -53 -60 -53q-9 0 -32 7l-96 42l-93 -40q-14 -7 -34 -7q-38 0 -62 51q-12 26 -12 42q0 32 38 45l139 46zM226 204q26 -26 63 -27q37 0 61 27q24 28 25 60t-23 60t-64 28t-64 -28t-24 -61t26 -59zM382 471 q6 56 79 56q39 0 58 -6t27 -21q8 -14 8 -26q2 -12 2 -35v-350q0 -23 -2 -35t-8 -26q-14 -26 -68 -26t-74 14q-18 14 -21 39q-37 -53 -123 -53t-161 79q-74 79 -74 183q1 104 75 184q74 78 163 78q34 0 62 -12t39 -22t18 -21z" unicode="â" horiz-adv-x="596" glyph-name="acircumflex"/>
<glyph d="M489 758q36 -25 36 -48q0 -14 -8 -27t-11 -19t-14 -19q-11 -14 -25 -25q-38 -28 -77 -28q-40 0 -62 13t-36 26t-24 13q-14 0 -26 -12q-22 -40 -42 -40t-48 24t-27 40q0 16 8 28t11 18q2 6 14 20t26 24q37 27 87 27q46 0 88 -37q14 -13 23 -13q18 0 26 12q21 38 45 38 q15 0 36 -15zM226 204q26 -26 63 -27q37 0 61 27q24 28 25 60t-23 60t-64 28t-64 -28t-24 -61t26 -59zM382 471q6 56 79 56q39 0 58 -6t27 -21q8 -14 8 -26q2 -12 2 -35v-350q0 -23 -2 -35t-8 -26q-14 -26 -68 -26t-74 14q-18 14 -21 39q-37 -53 -123 -53t-161 79 q-74 79 -74 183q1 104 75 184q74 78 163 78q34 0 62 -12t39 -22t18 -21z" unicode="ã" horiz-adv-x="596" glyph-name="atilde"/>
<glyph d="M460 595q-32 0 -51 6q-19 5 -27 21t-10 28t-1 35q-1 23 1 35t10 26t28 21q20 6 51 6q32 0 51 -6q19 -5 27 -21q7 -16 9 -28t2 -34q0 -24 -2 -36t-9 -26q-7 -15 -27 -21t-52 -6zM190 595q-32 0 -51 6q-19 5 -27 21t-10 28q-1 9 -1 24q1 6 1 12q0 24 2 34t8 26q8 15 28 21 t51 6q32 0 51 -6q19 -5 27 -21q7 -16 9 -28t2 -34q0 -24 -2 -36t-9 -26q-7 -15 -27 -21t-52 -6zM226 204q26 -26 63 -27q37 0 61 27q24 28 25 60t-23 60t-64 28t-64 -28t-24 -61t26 -59zM382 471q6 56 79 56q39 0 58 -6t27 -21q8 -14 8 -26q2 -12 2 -35v-350q0 -23 -2 -35 t-8 -26q-14 -26 -68 -26t-74 14q-18 14 -21 39q-37 -53 -123 -53t-161 79q-74 79 -74 183q1 104 75 184q74 78 163 78q34 0 62 -12t39 -22t18 -21z" unicode="ä" horiz-adv-x="596" glyph-name="adieresis"/>
<glyph d="M226 204q26 -26 63 -27q37 0 61 27q24 28 25 60t-23 60t-64 28t-64 -28t-24 -61t26 -59zM382 471q6 56 79 56q39 0 58 -6t27 -21q8 -14 8 -26q2 -12 2 -35v-350q0 -23 -2 -35t-8 -26q-14 -26 -68 -26t-74 14q-18 14 -21 39q-37 -53 -123 -53t-161 79q-74 79 -74 183 q1 104 75 184q74 78 163 78q34 0 62 -12t39 -22t18 -21zM328 602q16 0 32 12t16 36t-15 36t-33 12t-32 -12q-16 -12 -16 -36t16 -36t32 -12zM258 722q32 29 71 29q41 -1 71 -29t30 -73t-32 -73t-70 -28t-70 28t-32 73q0 44 32 73z" unicode="å" horiz-adv-x="596" glyph-name="aring"/>
<glyph d="M696 366q-18 14 -48 14q-32 0 -64 -26t-31 -56h126q35 0 35 31q0 23 -18 37zM245 109q39 1 75 15t55 38l-3 9q-46 18 -120 18t-74 -34q0 -46 67 -46zM752 159q26 10 39 10q33 0 55 -43q13 -26 13 -45t-11 -33t-21 -18q-11 -4 -19 -7t-10 -3t-2 -2q-69 -25 -147 -25 q-137 0 -213 85l-2 -4q-40 -40 -88 -62t-139 -21q-182 0 -182 158q0 65 58 98t145 33t133 -31v6q-10 118 -84 118q-44 0 -77 -35q-34 -35 -64 -35t-64 40t-33 66q0 25 32 55t85 50t118 21q104 0 179 -72q77 69 196 69q57 0 105 -20t75 -50q56 -64 56 -130q-1 -66 -31 -94 t-67 -29h-233q0 -28 32 -47t65 -19q59 0 91 12z" unicode="æ" horiz-adv-x="910" glyph-name="ae"/>
<glyph d="M201 -21q3 17 16 27q-81 26 -137 94t-55 167q0 63 26 117t67 86q87 68 181 68q39 0 75 -10t53 -20l17 -11q19 -12 28 -19q27 -21 27 -46t-22 -60q-36 -55 -70 -55q-19 0 -54 22q-19 17 -53 17t-63 -24t-29 -66q0 -44 28 -68t61 -24q31 0 59 18t45 19q30 0 75 -54 q23 -29 23 -53q0 -37 -55 -72q-32 -22 -83 -33q35 -31 35 -81t-36 -80t-76 -30q-27 0 -41 8q-39 20 -41 39l-1 5q-1 12 15 30t27 19q11 -1 18 -5t11 -5q4 -4 12 -4t16 6q8 5 8 17t-8 18t-16 6t-13 -5q-15 -10 -29 -10t-28 21t-13 31z" unicode="ç" horiz-adv-x="524" glyph-name="ccedilla"/>
<glyph d="M337 297q38 0 38 32q1 23 -17 37t-50 14t-65 -26q-32 -26 -32 -57h126zM518 236q-30 -30 -68 -30h-237q0 -28 33 -47t66 -19q58 0 91 12l11 4q24 11 40 11q32 0 55 -45q13 -27 13 -46q0 -89 -213 -89q-73 -1 -131 25t-90 68q-63 81 -63 181q-1 125 81 201t204 76 q139 0 204 -98q34 -52 34 -114q0 -60 -30 -90zM379 569l-30 7l-165 52q-27 8 -35 19t-8 27t8 41q19 59 49 59q4 0 30 -7l165 -51q14 -5 21 -8q22 -12 22 -34t-8 -46q-19 -59 -49 -59z" unicode="è" horiz-adv-x="573" glyph-name="egrave"/>
<glyph d="M337 297q38 0 38 32q1 23 -17 37t-50 14t-65 -26q-32 -26 -32 -57h126zM518 236q-30 -30 -68 -30h-237q0 -28 33 -47t66 -19q58 0 91 12l11 4q24 11 40 11q32 0 55 -45q13 -27 13 -46q0 -89 -213 -89q-73 -1 -131 25t-90 68q-63 81 -63 181q-1 125 81 201t204 76 q139 0 204 -98q34 -52 34 -114q0 -60 -30 -90zM256 576q-14 -7 -30 -7q-30 0 -49 59q-8 24 -8 41t7 26q9 13 36 21l165 51q26 7 30 7q30 0 48 -59q8 -25 8 -41t-7 -25q-9 -13 -36 -21z" unicode="é" horiz-adv-x="573" glyph-name="eacute"/>
<glyph d="M337 297q38 0 38 32q1 23 -17 37t-50 14t-65 -26q-32 -26 -32 -57h126zM518 236q-30 -30 -68 -30h-237q0 -28 33 -47t66 -19q58 0 91 12l11 4q24 11 40 11q32 0 55 -45q13 -27 13 -46q0 -89 -213 -89q-73 -1 -131 25t-90 68q-63 81 -63 181q-1 125 81 201t204 76 q139 0 204 -98q34 -52 34 -114q0 -60 -30 -90zM297 774l23 -5q92 -30 134 -44t42 -49q0 -19 -11 -40q-27 -53 -60 -53q-9 0 -32 7l-96 42l-93 -40q-14 -7 -34 -7q-38 0 -62 51q-12 26 -12 42q0 32 38 45l139 46z" unicode="ê" horiz-adv-x="573" glyph-name="ecircumflex"/>
<glyph d="M337 297q38 0 38 32q1 23 -17 37t-50 14t-65 -26q-32 -26 -32 -57h126zM518 236q-30 -30 -68 -30h-237q0 -28 33 -47t66 -19q58 0 91 12l11 4q24 11 40 11q32 0 55 -45q13 -27 13 -46q0 -89 -213 -89q-73 -1 -131 25t-90 68q-63 81 -63 181q-1 125 81 201t204 76 q139 0 204 -98q34 -52 34 -114q0 -60 -30 -90zM153 595q-32 0 -51 6q-19 5 -27 21q-7 16 -9 28q-1 9 -2 24v12q0 24 2 34t10 26q8 15 26 21q20 6 52 6t51 -6q19 -5 27 -21t10 -28t1 -34q1 -24 -1 -36t-10 -26q-8 -15 -28 -21t-51 -6zM423 595q-32 0 -51 6q-19 5 -27 21 q-7 16 -9 28t-2 35t2 35t9 26t27 21q20 6 52 6t51 -6q19 -5 27 -21t10 -28t1 -34q1 -24 -1 -36t-10 -26q-8 -15 -28 -21t-51 -6z" unicode="ë" horiz-adv-x="573" glyph-name="edieresis"/>
<glyph d="M191 569l-30 7l-165 52q-27 8 -35 19t-8 27t8 41q19 59 49 59q4 0 30 -7l165 -51q14 -5 21 -8q22 -12 22 -34t-8 -46q-19 -59 -49 -59zM40 439q0 23 2 35t8 26q14 26 78 26q48 0 68 -17q17 -14 18 -43q1 -10 1 -29v-350q1 -23 -1 -35t-10 -26q-13 -26 -77 -26 q-63 0 -77 27q-6 15 -8 26t-2 35v351z" unicode="ì" horiz-adv-x="255" glyph-name="igrave"/>
<glyph d="M103 576l-30 -7q-30 0 -49 59q-8 24 -8 41t6 26q10 13 37 21l165 51q26 7 30 7q30 0 48 -59q8 -25 8 -41t-6 -25q-10 -13 -37 -21zM40 439q0 23 2 35t8 26q14 26 78 26q48 0 68 -17q17 -14 18 -43q1 -10 1 -29v-350q1 -23 -1 -35t-10 -26q-13 -26 -77 -26q-63 0 -77 27 q-6 15 -8 26t-2 35v351z" unicode="í" horiz-adv-x="255" glyph-name="iacute"/>
<glyph d="M129 774l23 -5q92 -30 134 -44t42 -49q0 -19 -11 -40q-27 -53 -60 -53q-9 0 -32 7l-96 42l-93 -40q-14 -7 -34 -7q-38 0 -62 51q-12 26 -12 42q0 32 38 45l139 46zM40 439q0 23 2 35t8 26q14 26 78 26q48 0 68 -17q17 -14 18 -43q1 -10 1 -29v-350q1 -23 -1 -35t-10 -26 q-13 -26 -77 -26q-63 0 -77 27q-6 15 -8 26t-2 35v351z" unicode="î" horiz-adv-x="255" glyph-name="icircumflex"/>
<glyph d="M263 595q-32 0 -51 6q-19 5 -27 21q-7 16 -9 28t-2 35t2 35t9 26t27 21q20 6 52 6t51 -6q19 -5 27 -21t10 -28t1 -34q1 -24 -1 -36t-10 -26q-8 -15 -28 -21t-51 -6zM-7 595q-32 0 -51 6q-19 5 -27 21q-7 16 -9 28q-1 9 -2 24v12q0 24 2 34t10 26q8 15 26 21q20 6 52 6 t51 -6q19 -5 27 -21t10 -28t1 -34q1 -24 -1 -36t-10 -26q-8 -15 -28 -21t-51 -6zM41 439q-1 23 1 35t9 26q14 26 78 26q48 0 68 -17q17 -14 18 -43q1 -10 1 -29v-350q0 -23 -2 -35t-9 -26q-13 -26 -77 -26q-63 0 -77 27q-7 15 -9 26t-1 35v351z" unicode="ï" horiz-adv-x="255" glyph-name="idieresis"/>
<glyph d="M228 186q32 -24 64 -23q32 -1 64 23t31 72q0 48 -30 71t-65 23t-65 -24t-30 -71t31 -71zM386 735l-24 -32q198 -144 198 -413q0 -16 -2 -48q-6 -95 -82 -173t-180 -78q-105 1 -188 75t-83 189q-1 56 23 106t61 83t81 52t90 19t74 -12t58 -35q-53 91 -128 131l-31 -41 q-17 -23 -29 -23t-28 10q-29 17 -29 34q0 9 13 26l23 31l-3 1l-18 9t-22 16t-5 23q0 15 14 42q22 42 52 42q15 0 65 -22l24 32q2 1 6 7t5 8q2 2 5 6q8 6 18 6t26 -11q27 -15 27 -29t-11 -31z" unicode="ð" horiz-adv-x="585" glyph-name="eth"/>
<glyph d="M470 758q36 -25 36 -48q0 -14 -8 -27t-11 -19t-14 -19q-11 -14 -25 -25q-38 -28 -77 -28t-61 13t-38 26q-14 13 -23 13q-14 0 -26 -12q-23 -40 -43 -40t-46 24q-28 24 -28 40t8 28t11 18t15 20t25 24q37 27 77 27q40 -1 62 -13t36 -24t23 -13q16 0 26 12q21 38 45 38 q15 0 36 -15zM333 527q101 -1 167 -77t66 -186v-176q0 -22 -2 -34t-8 -26q-14 -27 -78 -27q-71 0 -82 37q-6 17 -6 51v176q0 41 -24 64t-62 23q-40 0 -64 -24t-25 -63v-177q1 -22 -1 -34t-10 -26q-13 -27 -77 -27q-63 0 -77 27q-6 14 -8 26t-2 35v354q0 21 2 33t9 26 q14 25 77 25q61 0 75 -23q10 -17 10 -41q4 7 18 20t27 21q34 23 75 23z" unicode="ñ" horiz-adv-x="606" glyph-name="ntilde"/>
<glyph d="M299 167q33 0 66 25t33 74t-31 73t-67 24t-67 -25q-31 -26 -31 -74t32 -72t65 -25zM389 569l-30 7l-165 52q-27 8 -35 19t-8 27t8 41q19 59 49 59q4 0 30 -7l165 -51q14 -5 21 -8q22 -12 22 -34t-8 -46q-19 -59 -49 -59zM109 461q84 78 192 78q108 1 191 -77t83 -198 q0 -84 -43 -148q-42 -64 -104 -94t-128 -31q-66 1 -128 33t-104 96t-43 143q0 120 84 198z" unicode="ò" horiz-adv-x="600" glyph-name="ograve"/>
<glyph d="M299 167q33 0 66 25t33 74t-31 73t-67 24t-67 -25q-31 -26 -31 -74t32 -72t65 -25zM263 576l-30 -7q-30 0 -49 59q-8 24 -8 41t6 26q10 13 37 21l165 51q26 7 30 7q30 0 48 -59q8 -25 8 -41t-6 -25q-10 -13 -37 -21zM109 461q84 78 192 78q108 1 191 -77t83 -198 q0 -84 -43 -148q-42 -64 -104 -94t-128 -31q-66 1 -128 33t-104 96t-43 143q0 120 84 198z" unicode="ó" horiz-adv-x="600" glyph-name="oacute"/>
<glyph d="M304 774l23 -5q93 -30 135 -44t41 -49q0 -19 -11 -40q-26 -53 -60 -53q-9 0 -32 7l-96 42l-93 -40h-1q-20 -7 -33 -7q-38 0 -62 51q-12 26 -12 42q0 32 38 45l139 46zM299 167q33 0 66 25t33 74t-31 73t-67 24t-67 -25q-31 -26 -31 -74t32 -72t65 -25zM109 461 q84 78 192 78q108 1 191 -77t83 -198q0 -84 -43 -148q-42 -64 -104 -94t-128 -31q-66 1 -128 33t-104 96t-43 143q0 120 84 198z" unicode="ô" horiz-adv-x="600" glyph-name="ocircumflex"/>
<glyph d="M466 758q36 -25 36 -48q0 -14 -8 -27t-11 -19t-14 -19q-11 -14 -25 -25q-38 -28 -77 -28t-61 13t-38 26q-14 13 -23 13q-14 0 -26 -12q-23 -40 -43 -40t-46 24q-28 24 -28 40t8 28t11 18t15 20t25 24q37 27 77 27q40 -1 62 -13t36 -24t23 -13q16 0 26 12q21 38 45 38 q15 0 36 -15zM299 167q33 0 66 25t33 74t-31 73t-67 24t-67 -25q-31 -26 -31 -74t32 -72t65 -25zM109 461q84 78 192 78q108 1 191 -77t83 -198q0 -84 -43 -148q-42 -64 -104 -94t-128 -31q-66 1 -128 33t-104 96t-43 143q0 120 84 198z" unicode="õ" horiz-adv-x="600" glyph-name="otilde"/>
<glyph d="M430 595q-32 0 -51 6q-19 5 -27 21t-10 28t-1 35q-1 23 1 35t10 26t28 21q20 6 51 6q32 0 51 -6q19 -5 27 -21q7 -16 9 -28t2 -34q0 -24 -2 -36t-9 -26q-7 -15 -27 -21t-52 -6zM160 595q-32 0 -51 6q-19 5 -27 21t-10 28q-1 9 -1 24q1 6 1 12q0 24 2 34t8 26q8 15 28 21 t51 6q32 0 51 -6q19 -5 27 -21q7 -16 9 -28t2 -34q0 -24 -2 -36t-9 -26q-7 -15 -27 -21t-52 -6zM299 167q33 0 66 25t33 74t-31 73t-67 24t-67 -25q-31 -26 -31 -74t32 -72t65 -25zM109 461q84 78 192 78q108 1 191 -77t83 -198q0 -84 -43 -148q-42 -64 -104 -94t-128 -31 q-66 1 -128 33t-104 96t-43 143q0 120 84 198z" unicode="ö" horiz-adv-x="600" glyph-name="odieresis"/>
<glyph d="M298 389q-18 -6 -56 -6q-38 -1 -55 17q-17 17 -17 51q0 33 2 46q2 10 9 23q13 26 65 26t72 -18q15 -15 15 -61v-4q-1 -35 -9 -51t-26 -23zM206 159q18 6 55 6q38 0 55 -17t17 -62v-4q0 -35 -9 -52q-14 -28 -67 -28t-71 19q-16 15 -16 48q0 34 2 47q2 10 9 24t25 19z M405 346q57 0 67 -30q6 -16 6 -42t-5 -41t-17 -21q-18 -10 -52 -10h-309q-53 0 -65 32q-5 14 -5 40t6 42t19 21q20 9 49 9h306z" unicode="÷" horiz-adv-x="503" glyph-name="divide"/>
<glyph d="M299 166q33 0 66 25t33 74t-31 73t-67 24t-67 -25t-31 -73t32 -74q32 -24 65 -24zM488 464q87 -80 87 -201q0 -83 -43 -147q-42 -64 -104 -96q-62 -30 -127 -30q-21 0 -40 3l-48 -100q-9 -17 -13 -25t-14 -16t-28 -7q-17 0 -50 15q-32 14 -44 26t-12 32t12 44l49 102 q-88 80 -88 199t84 197t190 78q19 0 39 -3l48 100q19 38 34 45q8 3 24 3t50 -16q54 -26 54 -57q0 -13 -14 -50z" unicode="ø" horiz-adv-x="600" glyph-name="oslash"/>
<glyph d="M388 569q-14 0 -30 7l-165 52q-27 8 -35 19t-8 27t8 41q19 59 49 59q4 0 30 -7l165 -51q14 -5 22 -8q21 -12 21 -34t-8 -46q-19 -59 -49 -59zM274 2q-102 0 -168 76t-66 187v175q0 24 2 35t8 26q14 27 78 27q70 0 82 -38q6 -16 6 -51v-175q0 -41 24 -64t62 -23 q40 0 64 24t25 63v177q-1 23 1 35t10 26q13 26 77 26q63 0 77 -27q6 -15 8 -27t2 -34v-354q0 -22 -2 -34t-9 -25q-15 -26 -77 -26q-61 0 -75 24q-10 17 -10 41q-4 -7 -18 -20t-27 -22q-34 -22 -74 -22z" unicode="ù" horiz-adv-x="606" glyph-name="ugrave"/>
<glyph d="M279 576l-30 -7q-30 0 -49 59q-8 24 -8 41t6 26q10 13 37 21l165 51q26 7 30 7q30 0 48 -59q8 -25 8 -41t-6 -25q-10 -13 -37 -21zM274 2q-102 0 -168 76t-66 187v175q0 24 2 35t8 26q14 27 78 27q70 0 82 -38q6 -16 6 -51v-175q0 -41 24 -64t62 -23q40 0 64 24t25 63 v177q-1 23 1 35t10 26q13 26 77 26q63 0 77 -27q6 -15 8 -27t2 -34v-354q0 -22 -2 -34t-9 -25q-15 -26 -77 -26q-61 0 -75 24q-10 17 -10 41q-4 -7 -18 -20t-27 -22q-34 -22 -74 -22z" unicode="ú" horiz-adv-x="606" glyph-name="uacute"/>
<glyph d="M308 774l23 -5q93 -30 135 -44t41 -49q0 -19 -11 -40q-26 -53 -60 -53q-9 0 -32 7l-96 42l-93 -40h-1q-20 -7 -33 -7q-38 0 -62 51q-12 26 -12 42q0 32 38 45l139 46zM274 2q-102 0 -168 76t-66 187v175q0 24 2 35t8 26q14 27 78 27q70 0 82 -38q6 -16 6 -51v-175 q0 -41 24 -64t62 -23q40 0 64 24t25 63v177q-1 23 1 35t10 26q13 26 77 26q63 0 77 -27q6 -15 8 -27t2 -34v-354q0 -22 -2 -34t-9 -25q-15 -26 -77 -26q-61 0 -75 24q-10 17 -10 41q-4 -7 -18 -20t-27 -22q-34 -22 -74 -22z" unicode="û" horiz-adv-x="606" glyph-name="ucircumflex"/>
<glyph d="M165 595q-32 0 -51 6q-19 5 -27 21q-7 16 -9 28q-1 9 -2 24v12q0 24 2 34t10 26q8 15 26 21q20 6 52 6t51 -6q19 -5 27 -21t10 -28t1 -34q1 -24 -1 -36t-10 -26q-8 -15 -28 -21t-51 -6zM435 595q-32 0 -51 6q-19 5 -27 21q-7 16 -9 28t-2 35t2 35t9 26t27 21q20 6 52 6 t51 -6q19 -5 27 -21t10 -28t1 -34q1 -24 -1 -36t-10 -26q-8 -15 -28 -21t-51 -6zM274 2q-102 0 -168 76t-66 187v175q0 24 2 35t8 26q14 27 78 27q70 0 82 -38q6 -16 6 -51v-175q0 -41 24 -64t62 -23q40 0 64 24t25 63v177q-1 23 1 35t10 26q13 26 77 26q63 0 77 -27 q6 -15 8 -27t2 -34v-354q0 -22 -2 -34t-9 -25q-15 -26 -77 -26q-61 0 -75 24q-10 17 -10 41q-4 -7 -18 -20t-27 -22q-34 -22 -74 -22z" unicode="ü" horiz-adv-x="606" glyph-name="udieresis"/>
<glyph d="M275 576l-30 -7q-30 0 -49 59q-8 24 -8 41t6 26q10 13 37 21l165 51q26 7 30 7q30 0 48 -59q8 -25 8 -41t-6 -25q-10 -13 -37 -21zM530 521q59 -26 59 -63q0 -18 -8 -34t-8 -17l-262 -586q-7 -19 -13 -29t-18 -19t-30 -9t-53 15q-59 26 -59 62q0 24 96 229l-199 335 q-20 33 -20 49q0 32 54 64q34 20 53 20t31 -8q11 -8 17 -16t56 -94q50 -84 94 -157q5 15 54 123q48 108 52 115t12 17q12 17 36 17t56 -14z" unicode="ý" horiz-adv-x="604" glyph-name="yacute"/>
<glyph d="M291 176q37 0 63 27t26 60t-24 61t-64 27q-40 0 -64 -28q-24 -29 -23 -61t25 -59t61 -27zM317 526q89 0 163 -79t75 -183q0 -104 -74 -184q-74 -78 -158 -78t-121 46v-189q0 -39 -8 -56t-26 -23t-48 -6t-46 6q-17 6 -24 20q-10 21 -10 61v840q0 39 8 57t27 23q18 6 47 6 q28 0 46 -6t25 -21q10 -20 10 -60v-223q40 49 114 49z" unicode="þ" horiz-adv-x="580" glyph-name="thorn"/>
<glyph d="M446 595q-32 0 -51 6q-19 5 -27 21t-10 28t-1 35q-1 23 1 35t10 26t28 21q20 6 51 6q32 0 51 -6q19 -5 27 -21q7 -16 9 -28t2 -34q0 -24 -2 -36t-9 -26q-7 -15 -27 -21t-52 -6zM176 595q-32 0 -51 6q-19 5 -27 21t-10 28q-1 9 -1 24q1 6 1 12q0 24 2 34t8 26q8 15 28 21 t51 6q32 0 51 -6q19 -5 27 -21q7 -16 9 -28t2 -34q0 -24 -2 -36t-9 -26q-7 -15 -27 -21t-52 -6zM530 521q59 -26 59 -63q0 -18 -8 -34t-8 -17l-262 -586q-7 -19 -13 -29t-18 -19t-30 -9t-53 15q-59 26 -59 62q0 24 96 229l-199 335q-20 33 -20 49q0 32 54 64q34 20 53 20 t31 -8q11 -8 17 -16t56 -94q50 -84 94 -157q5 15 54 123q48 108 52 115t12 17q12 17 36 17t56 -14z" unicode="ÿ" horiz-adv-x="604" glyph-name="ydieresis"/>
<glyph d="M40 439q0 23 2 35t8 26q14 26 78 26q48 0 68 -17q17 -14 18 -43q1 -10 1 -29v-350q1 -23 -1 -35t-10 -26q-13 -26 -77 -26q-63 0 -77 27q-6 15 -8 26t-2 35v351z" unicode="ı" horiz-adv-x="255" glyph-name="dotlessi"/>
<glyph d="M317 148h272q33 0 48 -8t20 -23q5 -17 5 -43t-5 -42t-17 -22q-19 -10 -52 -10h-360q-70 0 -82 38q-6 16 -6 51v202l-32 -9q-20 -6 -30 -6q-33 0 -48 51q-5 20 -5 33q1 14 9 24t16 14t24 7l66 18v222q0 23 2 35t9 26q14 27 78 27q70 0 83 -37q5 -17 5 -52v-170l64 18 q20 6 30 6q33 0 47 -51q5 -23 5 -35t-8 -22q-7 -10 -15 -13t-25 -8l-98 -28v-193z" unicode="Ł" horiz-adv-x="687" glyph-name="Lslash"/>
<glyph d="M132 687q0 23 2 35t8 26q14 27 78 27q61 0 76 -27q8 -15 10 -27t1 -35v-212l64 18q20 6 30 6q33 0 47 -51q5 -23 5 -35t-8 -22q-7 -10 -15 -13t-25 -8l-98 -28v-118q0 -35 6 -45q7 -10 27 -10t27 -2t17 -8q20 -13 20 -71q0 -63 -20 -77q-16 -11 -57 -11q-28 0 -67 5 q-77 10 -100 51q-28 49 -28 156v80l-34 -9q-20 -6 -30 -6q-33 0 -48 51q-5 20 -5 33q1 14 9 24t16 14t24 7l68 19v263z" unicode="ł" horiz-adv-x="468" glyph-name="lslash"/>
<glyph d="M373 173h121v387h-121q-67 -6 -119 -59t-52 -135t52 -134t119 -59zM979 177q23 1 35 -1t26 -10q27 -14 27 -78q0 -70 -37 -82q-17 -6 -52 -6h-605q-148 8 -248 114t-100 256q1 150 105 256t243 107h606q23 1 35 -1t26 -10q27 -14 27 -78q0 -70 -37 -82q-17 -6 -52 -6 h-307v-101h198q23 1 35 -1t26 -10q27 -14 27 -78q0 -70 -38 -82q-17 -6 -52 -6h-196v-101h308z" unicode="Œ" horiz-adv-x="1092" glyph-name="OE"/>
<glyph d="M730 366q-18 14 -48 14q-32 0 -64 -26t-31 -56h126q35 0 35 31q0 23 -18 37zM298 165q33 0 66 25t33 74t-31 73t-67 24t-67 -25q-31 -26 -31 -74t32 -72t65 -25zM786 159q26 10 39 10q33 0 55 -43q13 -26 13 -45t-11 -33t-21 -18q-11 -4 -19 -7t-10 -3t-2 -2 q-69 -25 -147 -25q-121 0 -197 69q-81 -73 -186 -73q-67 1 -129 33q-63 32 -105 96t-42 143q0 120 84 198t192 78t187 -74q77 69 196 69q57 0 105 -20t75 -50q56 -64 56 -130q-1 -66 -31 -94t-67 -29h-232q0 -28 32 -47t64 -19q59 0 91 12z" unicode="œ" horiz-adv-x="944" glyph-name="oe"/>
<glyph d="M291 783l-23 5q-93 31 -139 46q-37 11 -37 45q0 17 10 42q24 49 50 51q9 1 13 1q11 0 29 -6l97 -42l86 38q26 9 39 9t20 -3q26 -11 41 -41t15 -50q0 -32 -39 -44l-139 -46zM51 103q-26 31 -26 57t43 68q25 24 53 24t78 -50q14 -16 40 -32t48 -16q93 0 93 76q0 22 -26 38 t-63 23q-38 7 -82 23t-82 36q-37 20 -63 66t-26 110q0 88 66 154t178 65q60 1 110 -15t68 -32l25 -19q31 -29 31 -49t-24 -55q-34 -50 -70 -50q-21 0 -52 20q-4 2 -12 10t-15 13q-21 13 -53 13q-32 1 -54 -15t-22 -44t26 -44q26 -17 63 -23q38 -7 83 -19t83 -30 q37 -18 63 -62t26 -110q0 -64 -26 -114t-68 -77q-81 -53 -173 -53q-47 0 -89 12t-68 28q-53 32 -74 62z" unicode="Š" horiz-adv-x="583" glyph-name="Scaron"/>
<glyph d="M44 47q-19 12 -19 38t38 79q11 17 35 17q24 -1 67 -25q42 -24 76 -24q61 0 61 24q0 19 -67 28q-63 9 -125 47q-29 19 -48 57t-19 91q0 158 217 158q71 0 146 -34q35 -16 35 -40t-22 -59t-45 -35q-12 0 -44 15t-71 15q-59 0 -59 -22q0 -30 68 -39q66 -7 128 -38 q28 -14 48 -48t20 -87t-20 -89t-54 -54q-64 -31 -160 -31t-186 56zM234 583l-23 5q-93 31 -139 46q-37 11 -37 45q0 17 10 42q24 49 51 51q8 1 12 1q11 0 29 -6l97 -42l86 38q26 9 39 9t20 -3q26 -11 41 -41t15 -50q0 -32 -39 -44l-139 -46z" unicode="š" horiz-adv-x="489" glyph-name="scaron"/>
<glyph d="M477 795q-32 0 -51 6q-19 5 -27 21q-7 16 -9 28t-2 35t2 35t9 26t27 21q20 6 52 6t51 -6q19 -5 27 -21t10 -28t1 -34q1 -24 -1 -36t-10 -26q-8 -15 -28 -21t-51 -6zM207 795q-32 0 -51 6q-19 5 -27 21q-7 16 -9 28q-1 9 -2 24v12q0 24 2 34t10 26q8 15 26 21q20 6 52 6 t51 -6q19 -5 27 -21t10 -28t1 -34q1 -24 -1 -36t-10 -26q-8 -15 -28 -21t-51 -6zM622 719q49 -34 49 -66q0 -19 -23 -53l-216 -323v-191q0 -22 -2 -34t-9 -27q-8 -15 -27 -21t-51 -6t-51 6t-27 22q-7 16 -9 26q-2 12 -2 36v189l-216 323q-23 34 -23 53q0 31 44 61t63 30 t30 -8q17 -11 36 -41l155 -248l155 248q19 29 33 39q15 10 33 10t58 -25z" unicode="Ÿ" horiz-adv-x="686" glyph-name="Ydieresis"/>
<glyph d="M320 783l-23 5q-93 31 -139 46q-37 11 -37 45q0 17 10 42q24 49 51 51q8 1 12 1q11 0 29 -6l97 -42l86 38q26 9 39 9t20 -3q26 -11 41 -41t15 -50q0 -32 -39 -44l-139 -46zM531 171q39 1 57 -9t24 -28t6 -46t-5 -45t-12 -26t-21 -13q-16 -6 -51 -6h-416q-23 0 -44 12 q-44 25 -44 79q0 26 12 42l310 429h-230q-23 0 -35 2t-28 8q-29 14 -29 75q0 64 27 78q14 7 26 9t36 2h402q23 0 44 -12q20 -12 32 -32t12 -47t-12 -43l-310 -429h249z" unicode="Ž" horiz-adv-x="643" glyph-name="Zcaron"/>
<glyph d="M303 176h171q40 0 58 -10t23 -29q6 -19 6 -50t-6 -50t-21 -27q-14 -8 -26 -8q-12 -2 -35 -2h-361q-35 0 -61 26t-26 62t26 62t80 73q54 49 98 87t48 42h-141q-57 0 -72 19q-17 22 -17 58q0 35 5 53t12 26t20 14q17 5 52 5h325q35 0 61 -25q26 -24 26 -62t-30 -67 t-215 -197zM302 583l-23 5q-93 31 -139 46q-37 11 -37 45q0 17 10 42q24 49 51 51q8 1 12 1q11 0 29 -6l97 -42l86 38q26 9 39 9t20 -3q26 -11 41 -41t15 -50q0 -32 -39 -44l-139 -46z" unicode="ž" horiz-adv-x="586" glyph-name="zcaron"/>
<glyph d="M419 569q-40 0 -43 -25l-5 -54l65 5q36 0 52 -7q26 -11 26 -57q0 -80 -35 -97q-23 -12 -62 -12l-64 3l-39 -349q-22 -102 -74 -151t-159 -49q-26 0 -40 2q-13 2 -27 15t-14 32q0 30 4 39q8 46 32 63t63 17t42 30q33 298 39 350q-6 -2 -24 -2t-30 2t-24 7q-23 11 -23 56 q0 80 35 97q16 8 28 10t34 1l20 -2l7 49q8 76 69 138t164 62q36 0 52 -6q26 -12 26 -58q0 -81 -34 -98q-21 -11 -61 -11z" unicode="ƒ" horiz-adv-x="529" glyph-name="florin"/>
<glyph d="M303 774l23 -5q92 -30 134 -44t42 -49q0 -19 -11 -40q-27 -53 -60 -53q-9 0 -32 7l-96 42l-93 -40q-14 -7 -34 -7q-38 0 -62 51q-12 26 -12 42q0 32 38 45l139 46z" unicode="ˆ" horiz-adv-x="603" glyph-name="circumflex"/>
<glyph d="M301 583l-23 5q-93 31 -139 46q-37 11 -37 45q0 17 10 42q24 49 51 51q8 1 12 1q11 0 29 -6l97 -42l86 38q26 9 39 9t20 -3q26 -11 41 -41t15 -50q0 -32 -39 -44l-139 -46z" unicode="ˇ" horiz-adv-x="600" glyph-name="caron"/>
<glyph d="M198 709q-18 -6 -50 -6t-51 6t-27 21q-8 14 -8 26q-2 12 -2 35t2 35t8 26q14 26 78 26q63 0 76 -27q8 -15 10 -27t1 -34q1 -22 -1 -34t-10 -26t-26 -21z" unicode="˙" horiz-adv-x="285" glyph-name="dotaccent"/>
<glyph d="M189 729q21 -1 41 15t20 46t-20 46q-20 15 -41 15q-21 1 -41 -15t-20 -46t20 -46q20 -15 41 -15zM100 882q40 36 90 37q50 0 89 -36q39 -35 39 -93t-40 -94t-88 -35t-90 37q-40 36 -40 92t40 92z" unicode="˚" horiz-adv-x="378" glyph-name="ring"/>
<glyph d="M301 -63q-5 5 -13 5t-17 -6q-8 -6 -8 -18t8 -17q8 -6 15 -6q6 0 14 3q11 11 26 11q14 -1 30 -19t16 -26t-1 -10q-2 -15 -25 -31q-32 -16 -66 -16q-34 -1 -70 29t-35 82q0 52 36 82q35 30 73 30t61 -16q27 -17 27 -32t-10 -29q-17 -26 -35 -26q-9 0 -25 10h-1z" unicode="˛" horiz-adv-x="570" glyph-name="ogonek"/>
<glyph d="M442 758q36 -25 36 -48q0 -14 -8 -27t-11 -19t-14 -19q-11 -14 -25 -25q-38 -28 -77 -28t-61 13t-38 26q-14 13 -23 13q-14 0 -26 -12q-23 -40 -43 -40t-46 24q-28 24 -28 40t8 28t11 18t15 20t25 24q37 27 77 27q40 -1 62 -13t36 -24t23 -13q16 0 26 12q21 38 45 38 q15 0 36 -15z" unicode="˜" horiz-adv-x="584" glyph-name="tilde"/>
<glyph d="M470 193h-383q-31 0 -45 9q-27 15 -27 73t25 71q19 9 50 9h381q57 0 69 -35q6 -17 6 -43t-4 -42t-10 -24t-18 -13q-14 -5 -44 -5z" unicode="–" horiz-adv-x="561" glyph-name="endash"/>
<glyph d="M603 193h-516q-31 0 -45 9q-27 15 -27 73t25 71q19 9 50 9h514q58 0 68 -35q6 -17 6 -46q0 -28 -5 -46t-17 -25q-18 -10 -53 -10z" unicode="—" horiz-adv-x="693" glyph-name="emdash"/>
<glyph d="M195 553q17 -17 17 -58v-15q0 -24 -2 -36t-9 -28q-15 -29 -76 -29t-81 20t-19 76q0 25 2 37q7 88 52 150t114 63q7 -1 13 -11t5 -26t-5 -27q-4 -9 -10 -11t-8 -2t-10 -6q-8 -4 -14 -12q-17 -20 -19 -65q33 -3 50 -20z" unicode="‘" horiz-adv-x="237" glyph-name="quoteleft"/>
<glyph d="M195 712q17 -17 17 -58v-16q0 -25 -2 -37q-7 -88 -52 -151t-114 -63q-6 1 -12 11t-6 27t4 27t10 10q6 2 9 2t11 6q8 4 14 12q16 21 18 65q-34 5 -50 22t-17 72q0 39 10 59q11 20 31 26t63 7q43 0 66 -21z" unicode="’" horiz-adv-x="237" glyph-name="quoteright"/>
<glyph d="M195 165q17 -17 17 -58v-16q0 -25 -2 -37q-7 -88 -52 -151t-114 -63q-6 0 -12 10t-6 28q0 16 4 26t10 12t9 2t11 4t14 13q16 21 18 65q-34 5 -50 22t-17 72q0 40 10 60q11 20 31 26t63 6t66 -21z" unicode="‚" horiz-adv-x="237" glyph-name="quotesinglbase"/>
<glyph d="M389 573q33 -3 51 -21t17 -72q0 -59 -21 -75q-24 -18 -76 -18t-72 20t-19 76q0 25 2 37q7 88 53 150t114 63q6 -1 12 -11t6 -26t-4 -27q-4 -9 -10 -11t-9 -2t-11 -6q-8 -4 -14 -12q-17 -20 -19 -65zM195 553q17 -17 17 -58v-15q0 -24 -2 -36t-9 -28q-15 -29 -76 -29 t-81 20t-19 76q0 25 2 37q7 88 52 150t114 63q7 -1 13 -11t5 -26t-5 -27q-4 -9 -10 -11t-8 -2t-10 -6q-8 -4 -14 -12q-17 -20 -19 -65q33 -3 50 -20z" unicode="“" horiz-adv-x="482" glyph-name="quotedblleft"/>
<glyph d="M195 712q17 -17 17 -58v-16q0 -25 -2 -37q-7 -88 -52 -151t-114 -63q-6 1 -12 11t-6 27t4 27t10 10q6 2 9 2t11 6q8 4 14 12q16 21 18 65q-34 5 -50 22t-17 72q0 39 10 59q11 20 31 26t63 7q43 0 66 -21zM310 726q20 6 64 7t64 -19t19 -76q0 -113 -55 -188 q-45 -63 -114 -63q-6 1 -12 11t-6 27t4 27t10 10q6 2 9 2t11 6q8 4 14 12q16 21 18 65q-32 4 -49 20q-18 18 -18 56q1 37 3 53q2 12 10 28t28 22z" unicode="”" horiz-adv-x="482" glyph-name="quotedblright"/>
<glyph d="M195 165q17 -17 17 -58v-16q0 -25 -2 -37q-7 -88 -52 -151t-114 -63q-6 0 -12 10t-6 28q0 16 4 26t10 12t9 2t11 4t14 13q16 21 18 65q-34 5 -50 22t-17 72q0 40 10 60q11 20 31 26t63 6t66 -21zM310 180q20 6 64 6t64 -20t19 -75q0 -113 -55 -188q-45 -63 -114 -63 q-6 0 -12 10t-6 28q0 16 4 26t10 12t9 2t11 4t14 13q16 21 18 65q-32 4 -49 20q-18 18 -18 56q1 38 3 54q2 12 10 27q8 17 28 23z" unicode="„" horiz-adv-x="482" glyph-name="quotedblbase"/>
<glyph d="M433 513q61 0 73 -34q6 -17 6 -45t-6 -46q-6 -17 -18 -24q-19 -10 -56 -10l-82 6v-463q0 -23 -2 -34t-8 -25q-8 -14 -27 -21q-19 -6 -50 -6t-49 6t-26 20t-10 26t-1 35v462l-86 -6q-58 0 -70 34q-6 18 -6 46q1 28 7 46t20 24q20 9 53 9l82 -7v158q-1 22 1 33t10 25t26 20 t50 5q32 0 50 -6q18 -7 26 -21t8 -26q2 -12 2 -34v-154z" unicode="†" horiz-adv-x="527" glyph-name="dagger"/>
<glyph d="M433 204q61 0 73 -34q6 -18 6 -46t-6 -46t-21 -24q-20 -9 -53 -9l-82 7v-155q0 -23 -2 -34t-8 -25q-8 -14 -27 -21q-19 -6 -50 -6t-49 6t-26 20t-10 26t-1 35v154l-83 -7q-61 0 -73 34q-6 17 -6 45q-1 28 5 46q6 17 19 24q19 10 56 10l82 -6v162l-86 -6q-58 0 -70 34 q-6 18 -6 46q1 28 7 46t20 24q20 9 53 9l82 -7v158q-1 22 1 33t10 25t26 20t50 5q32 0 50 -6q18 -7 26 -21t8 -26q2 -12 2 -34v-154l83 7q61 0 73 -34q6 -17 6 -45t-6 -46q-6 -17 -18 -24q-19 -10 -56 -10l-82 6v-162z" unicode="‡" horiz-adv-x="527" glyph-name="daggerdbl"/>
<glyph d="M317 316q0 -146 -146 -146t-146 146t146 146t146 -146z" unicode="•" horiz-adv-x="342" glyph-name="bullet"/>
<glyph d="M739 180q20 6 64 6q43 0 63 -20t20 -75q0 -58 -22 -74q-24 -18 -76 -18t-70 20q-20 20 -20 75q0 24 2 36t10 27q8 17 29 23zM402 180q20 6 64 6t64 -20t19 -75q0 -39 -10 -59q-11 -20 -31 -26q-20 -7 -64 -7q-44 -1 -62 19q-20 20 -20 61v15q0 24 2 36t10 27q8 17 28 23z M195 165q17 -17 17 -58v-16q0 -23 -2 -35t-9 -28q-15 -29 -76 -29t-81 20t-19 75q0 40 10 60q11 20 31 26t63 6t66 -21z" unicode="…" horiz-adv-x="911" glyph-name="ellipsis"/>
<glyph d="M573 761q13 23 25 23t37 -13q24 -13 24 -28q0 -7 -7 -19l-387 -731l-2 -3q-11 -20 -23 -20t-36 12t-24 25q0 12 7 24zM208 483q60 0 60 67q0 36 -14 51t-46 15t-46 -16t-14 -50q0 -36 15 -52t45 -15zM85 685q45 51 125 51t124 -50t43 -138q1 -88 -43 -136t-122 -49 q-78 0 -126 50q-46 49 -46 135t45 137zM631 118q61 0 61 68q0 36 -14 51t-46 15t-46 -16t-14 -51t14 -51t45 -16zM508 321q46 51 126 51t123 -50t43 -138t-43 -138q-43 -48 -122 -48t-125 50t-47 136q0 86 45 137zM1014 118q60 0 60 68q0 36 -14 51t-46 15t-46 -16t-14 -52 t14 -51t46 -15zM891 321q45 51 125 51t124 -50t43 -138q1 -88 -43 -138q-44 -48 -122 -48t-126 50q-46 50 -46 136t45 137z" unicode="‰" horiz-adv-x="1223" glyph-name="perthousand"/>
<glyph d="M16 263l-1 7q0 21 30 51l176 176q31 31 54 31t58 -35t35 -57t-26 -51l-121 -122l120 -119q27 -28 27 -52t-34 -58t-58 -35q-24 0 -55 31l-179 178q-27 29 -27 48z" unicode="‹" horiz-adv-x="383" glyph-name="guilsinglleft"/>
<glyph d="M338 321q30 -28 30 -49q0 -6 -1 -9q1 -3 1 -9q0 -21 -30 -49l-178 -177q-30 -30 -52 -30t-58 35q-35 35 -35 59t30 54l117 117l-119 120q-28 27 -28 51t35 59t58 35t54 -31z" unicode="›" horiz-adv-x="383" glyph-name="guilsinglright"/>
<glyph d="M444 778q4 4 10 4t13 1q6 -1 29 -13t23 -26t-10 -25l-384 -726q-6 -12 -10 -17q-6 -6 -15 -6q-12 0 -31 10q-29 16 -29 28q0 9 9 27l384 726q7 13 11 17z" unicode="⁄" horiz-adv-x="433" glyph-name="fraction"/>
<glyph d="M270 388l1 -32h208q17 0 25 -2t18 -14q9 -12 9 -34q1 -22 -3 -32q-4 -12 -12 -16q-13 -7 -38 -7h-192q15 -47 39 -61t54 -14h121q40 0 58 -10t23 -28q6 -20 6 -50t-6 -48t-19 -26q-20 -12 -57 -12h-127q-60 0 -106 21t-72 47q-28 26 -53 73t-38 108h-41q-25 0 -36 5 q-17 10 -17 42t9 44t18 14t25 1h30q-1 13 -1 40v18h-28q-25 0 -36 5q-17 10 -17 42t9 44t18 14t25 1h40q14 74 46 126t73 77q75 46 153 46h124q21 0 33 -2t26 -9q14 -8 20 -27t5 -50q0 -31 -6 -50q-6 -18 -21 -26q-14 -8 -26 -10t-35 -1h-121q-65 0 -90 -74h191q40 0 48 -23 q4 -12 4 -30q1 -18 -3 -30t-12 -16q-13 -7 -38 -7h-207z" unicode="€" horiz-adv-x="612" glyph-name="Euro"/>
<glyph d="M328 634q38 0 44 -26q3 -12 3 -38t-10 -40q-10 -15 -37 -15h-70v-224q0 -41 -26 -49q-14 -4 -36 -4t-34 4q-14 4 -20 14q-8 14 -8 36v223h-69q-38 0 -46 25q-4 13 -4 34q0 20 4 34t12 19q11 7 30 7h267zM683 609q18 25 46 25q29 0 43 -6t20 -18q8 -20 8 -46v-273 q0 -17 -2 -27t-16 -18t-42 -8t-43 8t-17 16q-2 10 -3 28v98q-40 -60 -74 -60q-16 0 -34 15t-28 30l-10 15v-94q0 -28 -7 -38q-12 -18 -58 -18q-43 0 -52 16q-7 13 -7 37q1 94 1 196q0 103 2 113t18 22t37 13q35 0 51 -16l5 -5l83 -117z" unicode="™" horiz-adv-x="840" glyph-name="trademark"/>
<glyph d="M480 193h-381q-57 0 -68 34q-6 18 -6 47t6 47t19 25q19 9 50 9h381q57 0 69 -35q6 -17 6 -46t-6 -47t-18 -25q-19 -9 -52 -9z" unicode="−" horiz-adv-x="581" glyph-name="minus"/>
</font>
</defs>
</svg>
